<?xml version="1.0" encoding="UTF-8" standalone="no"?>
<svg
   width="1124.5881mm"
   height="241.11029mm"
   viewBox="0 0 1124.5881 241.11029"
   version="1.1"
   id="svg5656"
   inkscape:version="1.2.1 (9c6d41e4, 2022-07-14)"
   sodipodi:docname="smartpy-logo-dark.svg"
   xmlns:inkscape="http://www.inkscape.org/namespaces/inkscape"
   xmlns:sodipodi="http://sodipodi.sourceforge.net/DTD/sodipodi-0.dtd"
   xmlns="http://www.w3.org/2000/svg"
   xmlns:svg="http://www.w3.org/2000/svg"
   xmlns:rdf="http://www.w3.org/1999/02/22-rdf-syntax-ns#"
   xmlns:cc="http://creativecommons.org/ns#"
   xmlns:dc="http://purl.org/dc/elements/1.1/">
  <defs
     id="defs5650" />
  <sodipodi:namedview
     id="base"
     pagecolor="#ffffff"
     bordercolor="#666666"
     borderopacity="1.0"
     inkscape:pageopacity="0.0"
     inkscape:pageshadow="2"
     inkscape:zoom="0.17778114"
     inkscape:cx="2185.2712"
     inkscape:cy="624.36319"
     inkscape:document-units="mm"
     inkscape:current-layer="layer1"
     inkscape:document-rotation="0"
     showgrid="false"
     fit-margin-top="30"
     fit-margin-left="30"
     fit-margin-bottom="30"
     fit-margin-right="30"
     inkscape:window-width="1309"
     inkscape:window-height="430"
     inkscape:window-x="0"
     inkscape:window-y="25"
     inkscape:window-maximized="0"
     inkscape:showpageshadow="0"
     inkscape:pagecheckerboard="1"
     inkscape:deskcolor="#d1d1d1" />
  <metadata
     id="metadata5653">
    <rdf:RDF>
      <cc:Work
         rdf:about="">
        <dc:format>image/svg+xml</dc:format>
        <dc:type
           rdf:resource="http://purl.org/dc/dcmitype/StillImage" />
        <dc:title />
      </cc:Work>
    </rdf:RDF>
  </metadata>
  <g
     inkscape:label="Layer 1"
     inkscape:groupmode="layer"
     id="layer1"
     transform="translate(485.94288,48.7397)">
    <path
       id="path839-6-3-6-9-4-9-5-2-89-7-1"
       style="color:#000000;font-style:normal;font-variant:normal;font-weight:normal;font-stretch:normal;font-size:50.8px;line-height:1.25;font-family:sans-serif;font-variant-ligatures:normal;font-variant-position:normal;font-variant-caps:normal;font-variant-numeric:normal;font-variant-alternates:normal;font-variant-east-asian:normal;font-feature-settings:normal;font-variation-settings:normal;text-indent:0;text-align:end;text-decoration:none;text-decoration-line:none;text-decoration-style:solid;text-decoration-color:#000000;letter-spacing:normal;word-spacing:normal;text-transform:none;writing-mode:lr-tb;direction:ltr;text-orientation:mixed;dominant-baseline:auto;baseline-shift:baseline;text-anchor:end;white-space:normal;shape-padding:0;shape-margin:0;inline-size:0;clip-rule:nonzero;display:inline;overflow:visible;visibility:visible;isolation:auto;mix-blend-mode:normal;color-interpolation:sRGB;color-interpolation-filters:linearRGB;solid-color:#000000;solid-opacity:1;vector-effect:none;fill:#b4b4b4;fill-opacity:1;fill-rule:nonzero;stroke:none;stroke-linecap:round;stroke-linejoin:miter;stroke-miterlimit:4;stroke-dasharray:none;stroke-dashoffset:0;stroke-opacity:1;color-rendering:auto;image-rendering:auto;shape-rendering:auto;text-rendering:auto;enable-background:accumulate;stop-color:#000000"
       d="m -150.33946,60.7048 -11.91016,0.01 a 11.07555,11.07555 0 0 0 -11.0664,11.084 11.07555,11.07555 0 0 0 11.08398,11.0664 l 11.91797,-0.01 h 0.002 c 8.72053,-0.011 13.99851,6.9818 10.41993,15.0781 l -0.0293,0.068 -0.0293,0.066 c -2.09213,4.9085 -4.07933,6.9086 -10.65234,9.0996 -20.61419,6.8713 -42.46289,-5.7637 -42.46289,-5.7637 a 11.07555,11.07555 0 0 0 -15.23828,3.627 11.07555,11.07555 0 0 0 3.6289,15.2383 c 0,0 28.94502,18.623 61.07813,7.9121 10.99095,-3.6637 19.73111,-11.4173 23.99609,-21.3809 9.55137,-21.7772 -7.52413,-46.1215 -30.73437,-46.0957 z m -9.80273,-48.5898 c -7.23226,-0.2397 -15.06438,0.6055 -23.09766,3.2832 h -0.002 c -10.99095,3.6636 -19.73112,11.4153 -23.9961,21.3789 -9.55194,21.7785 7.52601,46.1263 30.73828,46.0976 l 11.91016,-0.01 a 11.07555,11.07555 0 0 0 11.06641,-11.084 11.07555,11.07555 0 0 0 -11.08399,-11.0664 l -11.91797,0.01 h -0.002 c -8.72053,0.011 -13.99851,-6.9838 -10.41992,-15.0801 l 0.0293,-0.066 0.0293,-0.068 c 2.09214,-4.9085 4.07933,-6.9066 10.65235,-9.0976 20.61418,-6.8714 42.46289,5.7636 42.46289,5.7636 a 11.07555,11.07555 0 0 0 15.23828,-3.6289 11.07555,11.07555 0 0 0 -3.62891,-15.2363 c 0,0 -16.28175,-10.4762 -37.97851,-11.1953 z" />
    <path
       style="color:#000000;font-style:normal;font-variant:normal;font-weight:normal;font-stretch:normal;font-size:50.8px;line-height:1.25;font-family:sans-serif;font-variant-ligatures:normal;font-variant-position:normal;font-variant-caps:normal;font-variant-numeric:normal;font-variant-alternates:normal;font-variant-east-asian:normal;font-feature-settings:normal;font-variation-settings:normal;text-indent:0;text-align:end;text-decoration:none;text-decoration-line:none;text-decoration-style:solid;text-decoration-color:#000000;letter-spacing:normal;word-spacing:normal;text-transform:none;writing-mode:lr-tb;direction:ltr;text-orientation:mixed;dominant-baseline:auto;baseline-shift:baseline;text-anchor:end;white-space:normal;shape-padding:0;shape-margin:0;inline-size:0;clip-rule:nonzero;display:inline;overflow:visible;visibility:visible;isolation:auto;mix-blend-mode:normal;color-interpolation:sRGB;color-interpolation-filters:linearRGB;solid-color:#000000;solid-opacity:1;vector-effect:none;fill:#b4b4b4;fill-opacity:1;fill-rule:nonzero;stroke:none;stroke-linecap:round;stroke-linejoin:round;stroke-miterlimit:4;stroke-dasharray:none;stroke-dashoffset:0;stroke-opacity:1;color-rendering:auto;image-rendering:auto;shape-rendering:auto;text-rendering:auto;enable-background:accumulate;stop-color:#000000"
       d="m -49.26583,11.6727 c -7.4852,0 -15.4682,1.401 -22.1114,6.3359 -6.6431,4.9349 -11.0889,12.1219 -15.3593,21.7305 -5.8317,13.1213 -6.5456,31.4702 -7.295,48.705 -0.7493,17.2349 -0.4961,32.168 -0.4961,32.168 a 11.07555,11.07555 0 0 0 11.2578,10.8906 11.07555,11.07555 0 0 0 10.8907,-11.2597 c 0,0 -0.2374,-14.3712 0.4785,-30.836 0.7158,-16.4647 3.4235,-36.2107 5.4062,-40.6718 3.544,-7.974 6.4224,-11.5311 8.3262,-12.9453 1.9038,-1.4143 3.6891,-1.9668 8.9024,-1.9668 5.2132,0 6.9984,0.5525 8.9023,1.9668 1.9039,1.4143 4.7822,4.9713 8.3262,12.9453 1.9827,4.4612 4.6903,24.2071 5.4062,40.6718 0.3365,7.7394 0.4374,14.7598 0.4766,20.2989 -0.044,6.4212 7e-4,10.747 0,10.8183 0,6e-4 0,0.088 0,0.088 a 11.07555,11.07555 0 0 0 0,0.1328 11.07555,11.07555 0 0 0 0,0.059 11.07555,11.07555 0 0 0 0,0.088 11.07555,11.07555 0 0 0 0.012,0.2442 11.07555,11.07555 0 0 0 0.014,0.1757 11.07555,11.07555 0 0 0 0.01,0.078 11.07555,11.07555 0 0 0 0.019,0.1953 11.07555,11.07555 0 0 0 0.01,0.078 11.07555,11.07555 0 0 0 0.023,0.1816 11.07555,11.07555 0 0 0 0.012,0.1 11.07555,11.07555 0 0 0 0.023,0.1602 11.07555,11.07555 0 0 0 0.029,0.1777 11.07555,11.07555 0 0 0 0.037,0.2071 11.07555,11.07555 0 0 0 0.037,0.1914 11.07555,11.07555 0 0 0 0.025,0.1172 11.07555,11.07555 0 0 0 0.023,0.098 11.07555,11.07555 0 0 0 0.047,0.1973 11.07555,11.07555 0 0 0 0.01,0.033 11.07555,11.07555 0 0 0 0.055,0.2148 11.07555,11.07555 0 0 0 0.037,0.125 11.07555,11.07555 0 0 0 0.041,0.1446 11.07555,11.07555 0 0 0 0.043,0.1406 11.07555,11.07555 0 0 0 0.029,0.09 11.07555,11.07555 0 0 0 0.082,0.2442 11.07555,11.07555 0 0 0 0,0.01 11.07555,11.07555 0 0 0 0.07,0.1973 11.07555,11.07555 0 0 0 0.037,0.098 11.07555,11.07555 0 0 0 0.039,0.1015 11.07555,11.07555 0 0 0 0.084,0.2051 11.07555,11.07555 0 0 0 0.1113,0.2578 11.07555,11.07555 0 0 0 0.1172,0.252 11.07555,11.07555 0 0 0 0.01,0.014 11.07555,11.07555 0 0 0 0.094,0.1914 11.07555,11.07555 0 0 0 0.055,0.1055 11.07555,11.07555 0 0 0 0.1,0.1895 11.07555,11.07555 0 0 0 0.1367,0.2441 11.07555,11.07555 0 0 0 0.1172,0.1973 11.07555,11.07555 0 0 0 0.08,0.1308 11.07555,11.07555 0 0 0 0.084,0.1348 11.07555,11.07555 0 0 0 0.019,0.029 11.07555,11.07555 0 0 0 0.1446,0.2187 11.07555,11.07555 0 0 0 0.123,0.1778 11.07555,11.07555 0 0 0 0.1133,0.1562 11.07555,11.07555 0 0 0 0.057,0.076 11.07555,11.07555 0 0 0 0.033,0.045 11.07555,11.07555 0 0 0 0.1172,0.1504 11.07555,11.07555 0 0 0 0.1465,0.1817 11.07555,11.07555 0 0 0 0.051,0.062 11.07555,11.07555 0 0 0 0.084,0.1015 11.07555,11.07555 0 0 0 0.1152,0.1309 11.07555,11.07555 0 0 0 0.1035,0.1152 11.07555,11.07555 0 0 0 0.057,0.062 11.07555,11.07555 0 0 0 0.096,0.1035 11.07555,11.07555 0 0 0 0.1445,0.1504 11.07555,11.07555 0 0 0 0.1348,0.1348 11.07555,11.07555 0 0 0 0.1582,0.1543 11.07555,11.07555 0 0 0 0.064,0.061 11.07555,11.07555 0 0 0 0.1309,0.1192 11.07555,11.07555 0 0 0 0.092,0.082 11.07555,11.07555 0 0 0 0.076,0.066 11.07555,11.07555 0 0 0 0.1622,0.1406 11.07555,11.07555 0 0 0 0.01,0.01 11.07555,11.07555 0 0 0 0.211,0.1719 11.07555,11.07555 0 0 0 0.1523,0.1191 11.07555,11.07555 0 0 0 0.1582,0.1172 11.07555,11.07555 0 0 0 0.1309,0.096 11.07555,11.07555 0 0 0 0.029,0.02 11.07555,11.07555 0 0 0 0.1679,0.1172 11.07555,11.07555 0 0 0 0.1446,0.098 11.07555,11.07555 0 0 0 0.068,0.045 11.07555,11.07555 0 0 0 0.1328,0.084 11.07555,11.07555 0 0 0 0.1641,0.1015 11.07555,11.07555 0 0 0 0.2148,0.127 11.07555,11.07555 0 0 0 0.062,0.035 11.07555,11.07555 0 0 0 0.209,0.1153 11.07555,11.07555 0 0 0 0.2071,0.1094 11.07555,11.07555 0 0 0 0.207,0.1035 11.07555,11.07555 0 0 0 0.01,0 11.07555,11.07555 0 0 0 0.1387,0.066 11.07555,11.07555 0 0 0 0.1914,0.086 11.07555,11.07555 0 0 0 0.1875,0.08 11.07555,11.07555 0 0 0 0.2207,0.092 11.07555,11.07555 0 0 0 0.041,0.016 11.07555,11.07555 0 0 0 0.1504,0.059 11.07555,11.07555 0 0 0 0.1758,0.062 11.07555,11.07555 0 0 0 0.027,0.01 11.07555,11.07555 0 0 0 0.1718,0.061 11.07555,11.07555 0 0 0 0.1875,0.059 11.07555,11.07555 0 0 0 0.064,0.022 11.07555,11.07555 0 0 0 0.086,0.025 11.07555,11.07555 0 0 0 0.2461,0.072 11.07555,11.07555 0 0 0 0.1,0.025 11.07555,11.07555 0 0 0 0.1426,0.037 11.07555,11.07555 0 0 0 0.1738,0.041 11.07555,11.07555 0 0 0 0.1016,0.023 11.07555,11.07555 0 0 0 0.049,0.012 11.07555,11.07555 0 0 0 0.2129,0.045 11.07555,11.07555 0 0 0 0.2481,0.045 11.07555,11.07555 0 0 0 0.2461,0.039 11.07555,11.07555 0 0 0 0.041,0.01 11.07555,11.07555 0 0 0 0.2656,0.035 11.07555,11.07555 0 0 0 0.2148,0.023 11.07555,11.07555 0 0 0 0.1231,0.012 11.07555,11.07555 0 0 0 0.092,0.01 11.07555,11.07555 0 0 0 0.1719,0.014 11.07555,11.07555 0 0 0 0.1796,0.01 11.07555,11.07555 0 0 0 0.336,0.014 11.07555,11.07555 0 0 0 0.047,0 11.07555,11.07555 0 0 0 0.043,0 11.07555,11.07555 0 0 0 0.2793,0 11.07555,11.07555 0 0 0 0.047,0 11.07555,11.07555 0 0 0 0.1348,0 11.07555,11.07555 0 0 0 0.055,0 11.07555,11.07555 0 0 0 0.2793,-0.014 11.07555,11.07555 0 0 0 0.2597,-0.018 11.07555,11.07555 0 0 0 0.02,0 11.07555,11.07555 0 0 0 0.2168,-0.021 11.07555,11.07555 0 0 0 0.062,-0.01 11.07555,11.07555 0 0 0 0.088,-0.01 11.07555,11.07555 0 0 0 0.1895,-0.024 11.07555,11.07555 0 0 0 0.027,0 11.07555,11.07555 0 0 0 0.1504,-0.023 11.07555,11.07555 0 0 0 0.1875,-0.029 11.07555,11.07555 0 0 0 0.1875,-0.033 11.07555,11.07555 0 0 0 0.2226,-0.045 11.07555,11.07555 0 0 0 0.049,-0.01 11.07555,11.07555 0 0 0 0.088,-0.019 11.07555,11.07555 0 0 0 0.1855,-0.043 11.07555,11.07555 0 0 0 0.088,-0.021 11.07555,11.07555 0 0 0 0.1836,-0.047 11.07555,11.07555 0 0 0 0.086,-0.023 11.07555,11.07555 0 0 0 0.1836,-0.053 11.07555,11.07555 0 0 0 0.086,-0.025 11.07555,11.07555 0 0 0 0.1816,-0.057 11.07555,11.07555 0 0 0 0.084,-0.027 11.07555,11.07555 0 0 0 0.1816,-0.062 11.07555,11.07555 0 0 0 0.014,-0.01 11.07555,11.07555 0 0 0 0.248,-0.09 11.07555,11.07555 0 0 0 0.084,-0.031 11.07555,11.07555 0 0 0 0.074,-0.031 11.07555,11.07555 0 0 0 0.1856,-0.074 11.07555,11.07555 0 0 0 0.2558,-0.1114 11.07555,11.07555 0 0 0 0.252,-0.1171 11.07555,11.07555 0 0 0 0.1718,-0.084 11.07555,11.07555 0 0 0 0.2012,-0.1035 11.07555,11.07555 0 0 0 0.047,-0.024 11.07555,11.07555 0 0 0 0.08,-0.043 11.07555,11.07555 0 0 0 0.166,-0.092 11.07555,11.07555 0 0 0 0.078,-0.045 11.07555,11.07555 0 0 0 0.035,-0.02 11.07555,11.07555 0 0 0 0.2051,-0.123 11.07555,11.07555 0 0 0 0.2344,-0.1485 11.07555,11.07555 0 0 0 0.1601,-0.1054 11.07555,11.07555 0 0 0 0.2207,-0.1524 11.07555,11.07555 0 0 0 0.01,-0.01 11.07555,11.07555 0 0 0 0.072,-0.051 11.07555,11.07555 0 0 0 0.1543,-0.1133 11.07555,11.07555 0 0 0 0.2227,-0.1699 11.07555,11.07555 0 0 0 0.2168,-0.1758 11.07555,11.07555 0 0 0 0.1348,-0.1113 11.07555,11.07555 0 0 0 0.1464,-0.129 11.07555,11.07555 0 0 0 0.2012,-0.1835 11.07555,11.07555 0 0 0 0.01,0 11.07555,11.07555 0 0 0 0.1386,-0.1308 11.07555,11.07555 0 0 0 0.064,-0.062 11.07555,11.07555 0 0 0 0.1348,-0.1348 11.07555,11.07555 0 0 0 0.1836,-0.1914 11.07555,11.07555 0 0 0 0.01,-0.01 11.07555,11.07555 0 0 0 0.061,-0.065 11.07555,11.07555 0 0 0 0.1289,-0.1426 11.07555,11.07555 0 0 0 0.059,-0.066 11.07555,11.07555 0 0 0 0.125,-0.1445 11.07555,11.07555 0 0 0 0.057,-0.068 11.07555,11.07555 0 0 0 0.1211,-0.1465 11.07555,11.07555 0 0 0 0.057,-0.07 11.07555,11.07555 0 0 0 0.1172,-0.1504 11.07555,11.07555 0 0 0 0.053,-0.07 11.07555,11.07555 0 0 0 0.1133,-0.1543 11.07555,11.07555 0 0 0 0.053,-0.072 11.07555,11.07555 0 0 0 0.1094,-0.1563 11.07555,11.07555 0 0 0 0.051,-0.074 11.07555,11.07555 0 0 0 0.035,-0.053 11.07555,11.07555 0 0 0 0.1113,-0.17 11.07555,11.07555 0 0 0 0.01,-0.01 11.07555,11.07555 0 0 0 0.1015,-0.1621 11.07555,11.07555 0 0 0 0.047,-0.076 11.07555,11.07555 0 0 0 0.029,-0.051 11.07555,11.07555 0 0 0 0.1114,-0.1914 11.07555,11.07555 0 0 0 0.094,-0.166 11.07555,11.07555 0 0 0 0.043,-0.078 11.07555,11.07555 0 0 0 0.088,-0.168 11.07555,11.07555 0 0 0 0.041,-0.08 11.07555,11.07555 0 0 0 0.084,-0.1719 11.07555,11.07555 0 0 0 0.039,-0.08 11.07555,11.07555 0 0 0 0.08,-0.1719 11.07555,11.07555 0 0 0 0.037,-0.082 11.07555,11.07555 0 0 0 0.029,-0.07 11.07555,11.07555 0 0 0 0.08,-0.1875 11.07555,11.07555 0 0 0 0.1035,-0.2597 11.07555,11.07555 0 0 0 0.066,-0.1778 11.07555,11.07555 0 0 0 0,-0.01 11.07555,11.07555 0 0 0 0.057,-0.1582 11.07555,11.07555 0 0 0 0.062,-0.1856 11.07555,11.07555 0 0 0 0.08,-0.2539 11.07555,11.07555 0 0 0 0,-0.014 11.07555,11.07555 0 0 0 0.053,-0.1817 11.07555,11.07555 0 0 0 0.024,-0.086 11.07555,11.07555 0 0 0 0.049,-0.1856 11.07555,11.07555 0 0 0 0.022,-0.086 11.07555,11.07555 0 0 0 0.043,-0.1856 11.07555,11.07555 0 0 0 0.02,-0.088 11.07555,11.07555 0 0 0 0.039,-0.1856 11.07555,11.07555 0 0 0 0.018,-0.088 11.07555,11.07555 0 0 0 0.01,-0.053 11.07555,11.07555 0 0 0 0.039,-0.2227 11.07555,11.07555 0 0 0 0.043,-0.2773 11.07555,11.07555 0 0 0 0.033,-0.2617 11.07555,11.07555 0 0 0 0,-0.016 11.07555,11.07555 0 0 0 0.019,-0.1894 11.07555,11.07555 0 0 0 0.023,-0.2793 11.07555,11.07555 0 0 0 0.016,-0.25 11.07555,11.07555 0 0 0 0,-0.029 11.07555,11.07555 0 0 0 0,-0.088 11.07555,11.07555 0 0 0 0,-0.059 11.07555,11.07555 0 0 0 0,-0.1797 c 0,0 0,-0.043 0,-0.043 6e-4,-0.035 0.046,-4.4322 0,-10.8984 0.039,-5.5355 0.1426,-12.5377 0.4785,-20.2637 0.7159,-16.4647 3.4216,-36.2107 5.4043,-40.6718 3.544,-7.974 6.4243,-11.531 8.3282,-12.9453 1.9038,-1.4143 3.6891,-1.9668 8.9023,-1.9668 5.2132,0 6.9965,0.5525 8.9004,1.9668 1.9039,1.4143 4.7842,4.9713 8.3281,12.9453 1.9827,4.4611 4.6884,24.2071 5.4043,40.6718 0.7159,16.4648 0.4805,30.836 0.4805,30.836 a 11.07555,11.07555 0 0 0 10.8887,11.2597 11.07555,11.07555 0 0 0 11.2597,-10.8906 c 0,0 0.2514,-14.9331 -0.498,-32.168 -0.7494,-17.2348 -1.4614,-35.5838 -7.293,-48.705 -4.2704,-9.6086 -8.7182,-16.7956 -15.3613,-21.7305 -6.6431,-4.9349 -14.6243,-6.3359 -22.1094,-6.3359 -7.4851,0 -15.4682,1.401 -22.1113,6.3359 -4.9751,3.6958 -8.7184,8.6578 -12.0781,14.9512 -3.3598,-6.2934 -7.1011,-11.2554 -12.0762,-14.9512 -6.6432,-4.9349 -14.6262,-6.3359 -22.1113,-6.3359 z"
       id="path841-5-1-2-3-3-7-6-8-8-51" />
    <g
       id="path1025-8-9-4-2-7-5-8-5-6"
       style="fill:#b4b4b4;fill-opacity:1"
       transform="translate(-1408.676,-6335.9621)">
      <path
         style="color:#000000;font-style:normal;font-variant:normal;font-weight:normal;font-stretch:normal;font-size:50.8px;line-height:1.25;font-family:sans-serif;font-variant-ligatures:normal;font-variant-position:normal;font-variant-caps:normal;font-variant-numeric:normal;font-variant-alternates:normal;font-variant-east-asian:normal;font-feature-settings:normal;font-variation-settings:normal;text-indent:0;text-align:end;text-decoration:none;text-decoration-line:none;text-decoration-style:solid;text-decoration-color:#000000;letter-spacing:normal;word-spacing:normal;text-transform:none;writing-mode:lr-tb;direction:ltr;text-orientation:mixed;dominant-baseline:auto;baseline-shift:baseline;text-anchor:end;white-space:normal;shape-padding:0;shape-margin:0;inline-size:0;clip-rule:nonzero;display:inline;overflow:visible;visibility:visible;isolation:auto;mix-blend-mode:normal;color-interpolation:sRGB;color-interpolation-filters:linearRGB;solid-color:#000000;solid-opacity:1;vector-effect:none;fill:#b4b4b4;fill-opacity:1;fill-rule:nonzero;stroke:none;stroke-width:0.265;stroke-linecap:round;stroke-linejoin:miter;stroke-miterlimit:4;stroke-dasharray:none;stroke-dashoffset:0;stroke-opacity:1;color-rendering:auto;image-rendering:auto;shape-rendering:auto;text-rendering:auto;enable-background:accumulate;stop-color:#000000;stop-opacity:1"
         d="m 1577.537,6348.0496 c -6.1174,-4e-4 -11.0766,4.9588 -11.0762,11.0762 v 97.2402 c -4e-4,6.1174 4.9588,11.0766 11.0762,11.0762 6.1166,-7e-4 11.0746,-4.9596 11.0742,-11.0762 v -97.2402 c 4e-4,-6.1166 -4.9576,-11.0755 -11.0742,-11.0762 z m -35.5547,0 c -17.8169,0 -32.0735,5.8739 -39.1875,17.6582 -7.114,11.7843 -7.4668,25.5989 -7.4668,42.0508 0,16.4518 0.3528,30.2666 7.4668,42.0508 7.114,11.7842 21.3706,17.6562 39.1875,17.6563 17.8169,0 32.0735,-5.8721 39.1875,-17.6563 7.114,-11.7842 7.4687,-25.599 7.4687,-42.0508 0,-16.4519 -0.3548,-30.2665 -7.4687,-42.0508 -7.114,-11.7843 -21.3706,-17.6582 -39.1875,-17.6582 z m 0,22.1504 c 13.958,0 17.4926,2.4295 20.2246,6.9551 2.732,4.5256 4.2793,15.0287 4.2793,30.6035 0,15.5747 -1.5474,26.0762 -4.2793,30.6016 -2.732,4.5254 -6.2665,6.9551 -20.2246,6.9551 -13.9581,0 -17.4907,-2.4297 -20.2227,-6.9551 -2.7319,-4.5255 -4.2812,-15.0269 -4.2812,-30.6016 0,-15.5748 1.5492,-26.0779 4.2812,-30.6035 2.732,-4.5256 6.2647,-6.9551 20.2227,-6.9551 z"
         id="path3855-00" />
      <path
         style="color:#000000;font-style:normal;font-variant:normal;font-weight:normal;font-stretch:normal;font-size:50.8px;line-height:1.25;font-family:sans-serif;font-variant-ligatures:normal;font-variant-position:normal;font-variant-caps:normal;font-variant-numeric:normal;font-variant-alternates:normal;font-variant-east-asian:normal;font-feature-settings:normal;font-variation-settings:normal;text-indent:0;text-align:end;text-decoration:none;text-decoration-line:none;text-decoration-style:solid;text-decoration-color:#000000;letter-spacing:normal;word-spacing:normal;text-transform:none;writing-mode:lr-tb;direction:ltr;text-orientation:mixed;dominant-baseline:auto;baseline-shift:baseline;text-anchor:end;white-space:normal;shape-padding:0;shape-margin:0;inline-size:0;clip-rule:nonzero;display:inline;overflow:visible;visibility:visible;isolation:auto;mix-blend-mode:normal;color-interpolation:sRGB;color-interpolation-filters:linearRGB;solid-color:#000000;solid-opacity:1;vector-effect:none;fill:#b4b4b4;fill-opacity:1;fill-rule:nonzero;stroke:none;stroke-linecap:round;stroke-linejoin:miter;stroke-miterlimit:4;stroke-dasharray:none;stroke-dashoffset:0;stroke-opacity:1;color-rendering:auto;image-rendering:auto;shape-rendering:auto;text-rendering:auto;enable-background:accumulate;stop-color:#000000;stop-opacity:1"
         d="m 1541.9824,6347.918 c -17.846,0 -32.1563,5.886 -39.3008,17.7207 -7.1366,11.8218 -7.4863,25.6653 -7.4863,42.1191 0,16.4537 0.3497,30.2974 7.4863,42.1192 7.1445,11.8345 21.4548,17.7206 39.3008,17.7207 10.0342,0 18.8857,-1.9295 26.0391,-5.6622 1.9485,3.3103 5.3978,5.639 9.5156,5.6387 6.1882,-7e-4 11.2074,-5.0208 11.207,-11.209 v -46.6543 c 0,-0.6685 0.027,-1.2758 0.027,-1.9531 0,-0.6774 -0.026,-1.2845 -0.027,-1.9531 v -46.6797 c 4e-4,-6.1882 -5.0188,-11.2063 -11.207,-11.207 -4.126,-3e-4 -7.5816,2.337 -9.5273,5.6582 -7.1515,-3.7293 -15.9984,-5.6582 -26.0274,-5.6582 z m 0,0.2636 c 9.9869,0 18.7777,1.9164 25.8789,5.6133 -0.8911,1.6077 -1.5333,3.3623 -1.5332,5.3301 v 37.8301 c -0.5636,-9.6945 -1.9387,-16.4417 -4.0078,-19.8692 -1.3736,-2.2754 -2.9701,-4.0448 -5.9668,-5.2285 -2.9967,-1.1836 -7.3844,-1.789 -14.3711,-1.789 -6.9867,0 -11.3729,0.6054 -14.3691,1.789 -2.9962,1.1837 -4.5932,2.9531 -5.9668,5.2285 -2.7674,4.5843 -4.3008,15.0883 -4.3008,30.6719 0,15.5835 1.5335,26.0858 4.3008,30.6699 1.3736,2.2754 2.9706,4.0468 5.9668,5.2305 2.9962,1.1837 7.3824,1.7891 14.3691,1.7891 6.9868,0 11.3744,-0.6054 14.3711,-1.7891 2.9967,-1.1837 4.5932,-2.9551 5.9668,-5.2305 2.069,-3.4273 3.4441,-10.1713 4.0078,-19.8652 v 37.8027 c -10e-5,1.9754 0.6474,3.7376 1.5449,5.3496 -7.1032,3.7005 -15.8982,5.6192 -25.8906,5.6192 -17.7878,-1e-4 -31.9906,-5.8599 -39.0742,-17.5938 -7.0913,-11.7466 -7.4473,-25.5325 -7.4473,-41.9824 0,-16.45 0.356,-30.2357 7.4473,-41.9824 7.0836,-11.7339 21.2864,-17.5938 39.0742,-17.5938 z m 35.5547,0 c 6.045,8e-4 10.9418,4.8984 10.9414,10.9434 v 35.2344 c -0.5172,-10.7315 -2.094,-20.2703 -7.1953,-28.7207 -3.0859,-5.1119 -7.5737,-9.0439 -13.041,-11.9414 1.9004,-3.2374 5.2684,-5.5159 9.2949,-5.5157 z m -9.4433,5.7344 c 5.4397,2.8785 9.8997,6.7854 12.9628,11.8594 6.7993,11.2631 7.3833,24.4679 7.4219,40.0312 v 3.9024 c -0.039,15.5633 -0.6225,28.7682 -7.4219,40.0312 -3.0609,5.0704 -7.5167,8.976 -12.9511,11.8536 -0.8777,-1.575 -1.5119,-3.297 -1.5117,-5.2286 v -47.6464 c 0,-0.3441 0.025,-0.6118 0.025,-0.961 0,-0.3492 -0.024,-0.6168 -0.025,-0.9609 v -47.6719 c -2e-4,-1.924 0.6287,-3.6383 1.5,-5.209 z m -26.1114,16.416 c 6.9713,0 11.3304,0.609 14.2735,1.7715 2.9431,1.1625 4.4795,2.869 5.8379,5.1192 2.6369,4.3681 4.1669,14.5855 4.2343,29.5878 v 1.8946 c -0.067,15.0022 -1.5975,25.218 -4.2343,29.5859 -1.3584,2.2501 -2.8949,3.9586 -5.8379,5.1211 -2.9431,1.1625 -7.3021,1.7715 -14.2735,1.7715 -6.9713,0 -11.3308,-0.609 -14.2734,-1.7715 -2.9426,-1.1625 -4.4776,-2.871 -5.836,-5.1211 -2.6964,-4.4668 -4.2617,-14.9673 -4.2617,-30.5332 0,-15.566 1.5652,-26.0682 4.2617,-30.5351 1.3584,-2.2502 2.8934,-3.9567 5.836,-5.1192 2.9426,-1.1625 7.3021,-1.7715 14.2734,-1.7715 z m 46.4961,50.8262 v 35.207 c 4e-4,6.045 -4.8964,10.9446 -10.9414,10.9453 -4.0183,3e-4 -7.3801,-2.2696 -9.2832,-5.496 5.4622,-2.8967 9.9455,-6.8292 13.0293,-11.9375 5.1014,-8.4504 6.6781,-17.9873 7.1953,-28.7188 z"
         id="path3857-2" />
    </g>
    <g
       id="path980-0-0-78-6-5-4-7-7-7-8-30"
       style="fill:#b4b4b4;fill-opacity:1"
       transform="translate(-1408.676,-6335.9621)">
      <path
         style="color:#000000;font-style:normal;font-variant:normal;font-weight:normal;font-stretch:normal;font-size:50.8px;line-height:1.25;font-family:sans-serif;font-variant-ligatures:normal;font-variant-position:normal;font-variant-caps:normal;font-variant-numeric:normal;font-variant-alternates:normal;font-variant-east-asian:normal;font-feature-settings:normal;font-variation-settings:normal;text-indent:0;text-align:end;text-decoration:none;text-decoration-line:none;text-decoration-style:solid;text-decoration-color:#000000;letter-spacing:normal;word-spacing:normal;text-transform:none;writing-mode:lr-tb;direction:ltr;text-orientation:mixed;dominant-baseline:auto;baseline-shift:baseline;text-anchor:end;white-space:normal;shape-padding:0;shape-margin:0;inline-size:0;clip-rule:nonzero;display:inline;overflow:visible;visibility:visible;isolation:auto;mix-blend-mode:normal;color-interpolation:sRGB;color-interpolation-filters:linearRGB;solid-color:#000000;solid-opacity:1;vector-effect:none;fill:#b4b4b4;fill-opacity:1;fill-rule:nonzero;stroke:none;stroke-width:0.265;stroke-linecap:round;stroke-linejoin:miter;stroke-miterlimit:4;stroke-dasharray:none;stroke-dashoffset:0;stroke-opacity:1;color-rendering:auto;image-rendering:auto;shape-rendering:auto;text-rendering:auto;enable-background:accumulate;stop-color:#000000;stop-opacity:1"
         d="m 1647.5064,6347.0731 c -4.9006,0 -12.4017,-0.083 -20.2831,3.0195 -7.8814,3.1029 -16.3457,12.28 -16.3457,23.8047 v 82.4922 c -4e-4,6.1174 4.9588,11.0766 11.0762,11.0762 6.1173,3e-4 11.0765,-4.9589 11.0761,-11.0762 v -82.4922 c 0,-3.4736 -0.2869,-2.1715 2.3086,-3.1933 2.5955,-1.0219 7.8693,-1.4786 12.1679,-1.4786 5.9515,0 24.2618,3.504 24.2618,3.504 5.9825,1.2789 11.8688,-2.5349 13.1465,-8.5176 1.2777,-5.9818 -2.5358,-11.8669 -8.5176,-13.1446 0,0 -16.8006,-3.9941 -28.8907,-3.9941 z"
         id="path3861-5" />
      <path
         style="color:#000000;font-style:normal;font-variant:normal;font-weight:normal;font-stretch:normal;font-size:50.8px;line-height:1.25;font-family:sans-serif;font-variant-ligatures:normal;font-variant-position:normal;font-variant-caps:normal;font-variant-numeric:normal;font-variant-alternates:normal;font-variant-east-asian:normal;font-feature-settings:normal;font-variation-settings:normal;text-indent:0;text-align:end;text-decoration:none;text-decoration-line:none;text-decoration-style:solid;text-decoration-color:#000000;letter-spacing:normal;word-spacing:normal;text-transform:none;writing-mode:lr-tb;direction:ltr;text-orientation:mixed;dominant-baseline:auto;baseline-shift:baseline;text-anchor:end;white-space:normal;shape-padding:0;shape-margin:0;inline-size:0;clip-rule:nonzero;display:inline;overflow:visible;visibility:visible;isolation:auto;mix-blend-mode:normal;color-interpolation:sRGB;color-interpolation-filters:linearRGB;solid-color:#000000;solid-opacity:1;vector-effect:none;fill:#b4b4b4;fill-opacity:1;fill-rule:nonzero;stroke:none;stroke-linecap:round;stroke-linejoin:miter;stroke-miterlimit:4;stroke-dasharray:none;stroke-dashoffset:0;stroke-opacity:1;color-rendering:auto;image-rendering:auto;shape-rendering:auto;text-rendering:auto;enable-background:accumulate;stop-color:#000000;stop-opacity:1"
         d="m 1647.5059,6346.9414 c -4.8991,0 -12.4233,-0.086 -20.3321,3.0274 -7.9341,3.1236 -16.4297,12.3381 -16.4297,23.9277 v 82.4922 c -4e-4,6.189 5.02,11.2093 11.209,11.209 6.189,3e-4 11.2094,-5.0201 11.209,-11.209 v -82.4922 c 0,-0.8702 -0.017,-1.4409 0,-1.8145 0.013,-0.3735 0.058,-0.5241 0.1426,-0.6035 0.085,-0.079 0.272,-0.1269 0.6113,-0.2031 0.3393,-0.076 0.8176,-0.1886 1.4746,-0.4473 2.5511,-1.0044 7.8299,-1.4707 12.1192,-1.4707 2.9497,0 9.0222,0.8743 14.3418,1.75 5.3175,0.8754 9.889,1.7513 9.8925,1.752 6.0526,1.2938 12.012,-2.5664 13.3047,-8.6192 1.2926,-6.0518 -2.5692,-12.01 -8.6211,-13.3027 -0.01,0 -16.801,-3.9961 -28.9179,-3.9961 z m 0,0.2637 c 12.0609,0 28.8613,3.9902 28.8613,3.9902 v 0 0 c 5.9118,1.2628 9.6788,7.0745 8.4161,12.9863 -1.2628,5.9127 -7.0778,9.6799 -12.9903,8.416 v 0 c 0,0 -4.5789,-0.8776 -9.9024,-1.7539 -5.3234,-0.8763 -11.383,-1.7519 -14.3847,-1.7519 -4.308,0 -9.5769,0.4469 -12.2168,1.4863 -0.6408,0.2522 -1.0987,0.3599 -1.4356,0.4355 -0.3369,0.076 -0.5645,0.1125 -0.7324,0.2696 -0.1679,0.157 -0.2145,0.3959 -0.2285,0.7871 -0.014,0.3912 0,0.9576 0,1.8242 v 82.4922 c 4e-4,6.0457 -4.8977,10.9456 -10.9434,10.9453 -6.0457,4e-4 -10.9437,-4.8996 -10.9433,-10.9453 v -82.4922 c 0,-11.4598 8.4331,-20.5976 16.2617,-23.6797 7.854,-3.0917 15.3323,-3.0117 20.2344,-3.0117 z"
         id="path3863-05" />
    </g>
    <g
       id="path1025-8-9-7-9-6-1-9-7"
       style="fill:#00b0f0;fill-opacity:1"
       transform="translate(-1408.676,-6335.9621)">
      <path
         style="color:#000000;font-style:normal;font-variant:normal;font-weight:normal;font-stretch:normal;font-size:50.8px;line-height:1.25;font-family:sans-serif;font-variant-ligatures:normal;font-variant-position:normal;font-variant-caps:normal;font-variant-numeric:normal;font-variant-alternates:normal;font-variant-east-asian:normal;font-feature-settings:normal;font-variation-settings:normal;text-indent:0;text-align:end;text-decoration:none;text-decoration-line:none;text-decoration-style:solid;text-decoration-color:#000000;letter-spacing:normal;word-spacing:normal;text-transform:none;writing-mode:lr-tb;direction:ltr;text-orientation:mixed;dominant-baseline:auto;baseline-shift:baseline;text-anchor:end;white-space:normal;shape-padding:0;shape-margin:0;inline-size:0;clip-rule:nonzero;display:inline;overflow:visible;visibility:visible;isolation:auto;mix-blend-mode:normal;color-interpolation:sRGB;color-interpolation-filters:linearRGB;solid-color:#000000;solid-opacity:1;vector-effect:none;fill:#00b0f0;fill-opacity:1;fill-rule:nonzero;stroke:none;stroke-width:0.265;stroke-linecap:round;stroke-linejoin:miter;stroke-miterlimit:4;stroke-dasharray:none;stroke-dashoffset:0;stroke-opacity:1;color-rendering:auto;image-rendering:auto;shape-rendering:auto;text-rendering:auto;enable-background:accumulate;stop-color:#000000;stop-opacity:1"
         d="m 1819.5435,6498.2004 c 6.5069,0.197 11.8878,-6.1224 11.0762,-12.4992 -0.038,-42.5511 0.075,-85.1073 -0.056,-127.6554 -0.4539,-7.0757 -8.6356,-12.0319 -15.1177,-9.1729 -5.1198,1.8751 -7.6586,7.5884 -6.9782,12.7806 0.038,42.1954 -0.075,84.3959 0.056,126.5882 0.4646,5.5294 5.4689,10.0541 11.0197,9.9587 z m 32.1739,-30.6758 c 16.1881,0.5384 34.2136,-4.3975 43.7069,-18.4926 9.3388,-14.3294 8.4439,-32.2907 8.3549,-48.6795 -0.3218,-14.4656 -2.8016,-30.6425 -14.4184,-40.5985 -13.3046,-11.5309 -32.4864,-13.3892 -49.2052,-10.327 -9.8124,2.0647 -19.7015,5.2916 -27.9857,11.0632 -5.5482,4.5863 -4.6204,14.3089 1.689,17.768 4.2583,2.7364 9.7064,1.5334 13.6415,-1.1922 14.0788,-6.7327 31.7179,-9.9548 46.0181,-2.0958 6.7561,5.0411 7.0696,14.4447 7.8731,22.142 0.4267,12.3333 1.1286,25.1731 -2.9281,37.0179 -2.6461,8.0323 -11.9864,9.9848 -19.358,10.9287 -12.5959,1.2347 -25.0276,-2.8682 -36.0333,-8.6586 -6.7313,-2.5493 -14.7205,3.0689 -14.6015,10.2642 -0.2801,5.4656 4.0689,9.8622 8.8901,11.7023 10.6262,5.4188 22.4111,8.7385 34.3566,9.1579 z"
         id="path3867-4" />
      <path
         style="color:#000000;font-style:normal;font-variant:normal;font-weight:normal;font-stretch:normal;font-size:50.8px;line-height:1.25;font-family:sans-serif;font-variant-ligatures:normal;font-variant-position:normal;font-variant-caps:normal;font-variant-numeric:normal;font-variant-alternates:normal;font-variant-east-asian:normal;font-feature-settings:normal;font-variation-settings:normal;text-indent:0;text-align:end;text-decoration:none;text-decoration-line:none;text-decoration-style:solid;text-decoration-color:#000000;letter-spacing:normal;word-spacing:normal;text-transform:none;writing-mode:lr-tb;direction:ltr;text-orientation:mixed;dominant-baseline:auto;baseline-shift:baseline;text-anchor:end;white-space:normal;shape-padding:0;shape-margin:0;inline-size:0;clip-rule:nonzero;display:inline;overflow:visible;visibility:visible;isolation:auto;mix-blend-mode:normal;color-interpolation:sRGB;color-interpolation-filters:linearRGB;solid-color:#000000;solid-opacity:1;vector-effect:none;fill:#00b0f0;fill-opacity:1;fill-rule:nonzero;stroke:none;stroke-linecap:round;stroke-linejoin:miter;stroke-miterlimit:4;stroke-dasharray:none;stroke-dashoffset:0;stroke-opacity:1;color-rendering:auto;image-rendering:auto;shape-rendering:auto;text-rendering:auto;enable-background:accumulate;stop-color:#000000;stop-opacity:1"
         d="m 1820.4922,6347.9707 c -1.7062,-0.1742 -3.4553,0.057 -5.0977,0.7813 -5.1784,1.9008 -7.7387,7.662 -7.0586,12.9023 0.025,28.2409 0.029,56.4827 0.037,84.7246 0,0.096 -0.037,0.183 -0.035,0.2793 -10e-5,0 10e-5,0 0,0 0,0.079 0.037,0.1458 0.035,0.2246 0,13.7853 -0.025,27.5714 0.018,41.3555 v 0.01 0 c 0.4707,5.6024 5.5282,10.1767 11.1523,10.08 6.5861,0.1955 12.0169,-6.1784 11.2071,-12.6308 -0.01,-7.2752 -0.01,-14.5508 -0.01,-21.8262 6.803,2.1431 13.8405,3.5309 20.9707,3.7812 16.2182,0.5395 34.2936,-4.4031 43.8223,-18.5507 v 0 c 9.3685,-14.3751 8.4659,-32.3674 8.3769,-48.7519 v 0 c -0.3221,-14.4785 -2.8013,-30.6992 -14.4648,-40.6953 -13.3469,-11.5676 -32.5706,-13.4246 -49.3164,-10.3574 v 0 c -3.9139,0.8235 -7.8164,1.9101 -11.6504,3.1914 -1.9287,-2.4811 -4.8606,-4.1985 -7.9863,-4.5176 z m -0.025,0.2676 c 3.0169,0.3118 5.85,1.9621 7.7363,4.3398 -5.6893,1.923 -11.1923,4.3771 -16.1093,7.8028 v 0 0 c -1.9562,1.6171 -3.0693,3.8713 -3.4843,6.2578 0,-1.6641 -5e-4,-3.3282 0,-4.9922 v -0.01 -0.01 c -0.6732,-5.1377 1.8411,-10.7886 6.8926,-12.6387 v 0 0 c 1.5982,-0.7049 3.3022,-0.9279 4.9668,-0.7558 z m 32.5605,0.021 c 13.0468,-0.2279 26.2994,2.973 36.2461,11.5937 v 0 c 11.57,9.9159 14.0496,26.0473 14.3711,40.5 0.089,16.3925 0.9747,34.3203 -8.334,48.6035 -9.4583,14.0407 -27.4328,18.9709 -43.5898,18.4336 -7.1322,-0.2504 -14.1747,-1.6437 -20.9805,-3.7949 4e-4,-7.8256 -0.013,-15.6509 -0.01,-23.4766 8.9748,3.7471 18.618,6.0279 28.3867,5.0703 v 0 0 c 3.6903,-0.4726 7.8795,-1.1966 11.4883,-2.8165 3.6081,-1.6194 6.6396,-4.1436 7.9766,-8.1992 4.0677,-11.877 3.3622,-24.7349 2.9355,-37.0664 v 0 -0.01 c -0.4013,-3.8449 -0.6793,-8.1259 -1.707,-12.086 -1.0277,-3.96 -2.8098,-7.6048 -6.2187,-10.1484 h -0.01 l -0.01,-0.01 c -13.3038,-7.3114 -29.3566,-4.8975 -42.8789,0.8399 -0.01,-5.8826 0.01,-11.7661 -0.01,-17.6485 v 0 0 c -0.128,-1.9961 -0.9004,-3.7927 -2.0332,-5.3301 3.7896,-1.2613 7.6461,-2.3356 11.5176,-3.1504 4.1729,-0.7643 8.4987,-1.2209 12.8476,-1.2968 z m -24.6406,4.5371 c 1.137,1.5131 1.9184,3.2853 2.0449,5.2578 0.018,5.9129 0,11.8271 0.01,17.7402 -0.9785,0.4195 -2.0479,0.6989 -2.9961,1.1524 h -0.01 l -0.01,0.01 c -3.9031,2.7034 -9.2959,3.8885 -13.4961,1.1895 v 0 0 c -6.2195,-3.4098 -7.137,-13.0173 -1.6739,-17.543 4.9191,-3.4269 10.4331,-5.8819 16.1387,-7.8027 z m 27.9903,17.7402 c 5.9176,0.2285 11.7284,1.6124 17.0683,4.5449 3.3427,2.4973 5.095,6.0725 6.1133,9.9961 1.0189,3.9264 1.299,8.1945 1.7012,12.0469 0.4268,12.3328 1.1229,25.1528 -2.9219,36.9629 -1.3096,3.9752 -4.2702,6.4425 -7.8359,8.043 -3.5646,1.5999 -7.7297,2.3254 -11.4102,2.7968 -9.7488,0.9557 -19.3844,-1.3372 -28.3594,-5.0976 0.01,-21.285 0.01,-42.5698 -0.029,-63.8535 8.047,-3.4274 16.9246,-5.7773 25.6739,-5.4395 z m -47.7735,0.1055 c 0.5272,3.1611 2.2506,6.1146 5.1836,7.7265 4.31,2.7696 9.8037,1.5556 13.7695,-1.1836 v 0 c 0.9115,-0.4358 1.9396,-0.7013 2.879,-1.1055 0.035,21.2088 0.037,42.4185 0.027,63.6289 -2.4931,-1.0546 -4.9582,-2.1749 -7.332,-3.4238 h -0.01 -0.01 c -6.0289,-2.2833 -13.0145,1.8913 -14.4824,7.9238 -0.01,-24.519 -0.022,-49.0375 -0.033,-73.5566 z m 11.8906,65.3047 c 0.8492,0.075 1.6975,0.2613 2.5254,0.5742 0,7e-4 0,0 0.01,0 2.4077,1.2664 4.9097,2.4075 7.4414,3.4746 0,7.8376 0.01,15.6743 0.01,23.5118 -4.479,-1.4321 -8.8737,-3.1297 -13.0547,-5.2618 h -0.01 -0.01 c -4.7107,-1.7979 -8.9113,-6.0643 -8.7695,-11.3477 -10e-5,-0.1712 0,-0.3424 0,-0.5136 0.086,-6.0751 5.9924,-10.9493 11.8574,-10.4336 z m -11.8554,12.6777 c 0.7199,4.5833 4.4229,8.2421 8.6758,9.8652 4.2144,2.1483 8.6455,3.8597 13.1621,5.2989 -4e-4,7.3042 0,14.608 0.01,21.9121 v 0.01 0.01 c 0.8009,6.2931 -4.5224,12.5439 -10.9414,12.3496 v 0 0 c -5.4774,0.094 -10.4263,-4.3816 -10.8848,-9.8379 -0.041,-13.2005 -0.012,-26.4037 -0.017,-39.6055 z"
         id="path3869-8" />
    </g>
    <g
       id="g2830-1-4-9-2-9-6-0"
       transform="matrix(13.507112,0,0,13.507112,-1879.8807,-3919.6637)"
       style="font-size:50.8px;line-height:1.25;font-family:sans-serif;text-align:end;text-anchor:end;fill:#00b0f0;fill-opacity:1;stroke:#000000;stroke-width:0;stroke-miterlimit:4;stroke-dasharray:none;stroke-opacity:1">
      <g
         id="path980-0-0-7-4-7-3-7-4-3-7-3-0-6"
         style="opacity:1;fill:#00b0f0;fill-opacity:1;stroke:#000000;stroke-opacity:1">
        <g
           id="path4739-8-0-1-4-0"
           style="opacity:1;fill:#00b0f0;fill-opacity:1">
          <path
             style="color:#000000;font-style:normal;font-variant:normal;font-weight:normal;font-stretch:normal;font-size:medium;line-height:normal;font-family:sans-serif;font-variant-ligatures:normal;font-variant-position:normal;font-variant-caps:normal;font-variant-numeric:normal;font-variant-alternates:normal;font-variant-east-asian:normal;font-feature-settings:normal;font-variation-settings:normal;text-indent:0;text-align:start;text-decoration:none;text-decoration-line:none;text-decoration-style:solid;text-decoration-color:#000000;letter-spacing:normal;word-spacing:normal;text-transform:none;writing-mode:lr-tb;direction:ltr;text-orientation:mixed;dominant-baseline:auto;baseline-shift:baseline;text-anchor:start;white-space:normal;shape-padding:0;shape-margin:0;inline-size:0;clip-rule:nonzero;display:inline;overflow:visible;visibility:visible;isolation:auto;mix-blend-mode:normal;color-interpolation:sRGB;color-interpolation-filters:linearRGB;solid-color:#000000;solid-opacity:1;vector-effect:none;fill:#00b0f0;fill-opacity:1;fill-rule:nonzero;stroke:none;stroke-width:0;stroke-linecap:round;stroke-linejoin:miter;stroke-miterlimit:4;stroke-dasharray:none;stroke-dashoffset:0;stroke-opacity:1;color-rendering:auto;image-rendering:auto;shape-rendering:auto;text-rendering:auto;enable-background:accumulate;stop-color:#000000;stop-opacity:1"
             d="m 178.33594,291.10352 c -0.45315,-0.008 -0.82668,0.35349 -0.83399,0.80664 0,0 -0.0184,1.10487 0.0371,2.38086 0.0555,1.27598 0.10733,2.63403 0.53906,3.60546 0.51923,1.1683 1.70354,1.56734 2.6211,1.68555 0.55206,0.0713 1.06053,0.0625 1.4043,0.0625 0.14274,0 0.46289,-10e-6 0.46289,-10e-6 v 0.23488 c 0,0.20132 -0.0352,0.23687 -0.0723,0.27929 -0.0371,0.0424 -0.11998,0.10096 -0.27539,0.14844 -0.31082,0.095 -0.80994,0.0918 -1.17969,0.0918 -0.11587,0 -0.76324,-0.10204 -1.27344,-0.2168 -0.51019,-0.11476 -0.94531,-0.23047 -0.94531,-0.23047 -0.43795,-0.11546 -0.88656,0.14602 -1.00195,0.58399 -0.11558,0.43735 0.14485,0.88569 0.58203,1.00195 0,0 0.46113,0.12161 1.00586,0.24414 0.54473,0.12253 1.11046,0.25781 1.63281,0.25781 0.28112,0 0.95824,0.0498 1.65821,-0.16406 0.34998,-0.10693 0.72998,-0.29215 1.03125,-0.63672 0.30127,-0.34457 0.47851,-0.83752 0.47851,-1.35937 v -7.95508 c -3.4e-4,-0.12757 -0.0304,-0.2533 -0.0879,-0.36719 l -0.002,-0.002 c -0.0683,-0.13599 -0.17315,-0.25028 -0.30274,-0.33008 -10e-4,-6.5e-4 -0.003,-0.001 -0.004,-0.002 -0.0434,-0.0263 -0.0892,-0.0486 -0.13672,-0.0664 -0.0224,-0.009 -0.0452,-0.0166 -0.0684,-0.0234 h -0.004 c -0.0232,-0.007 -0.0466,-0.0128 -0.0703,-0.0176 h -0.004 c -0.0233,-0.004 -0.0467,-0.008 -0.0703,-0.01 -0.002,-1e-5 -0.004,-1e-5 -0.006,0 -0.0228,-0.002 -0.0456,-0.002 -0.0684,-0.002 -0.0491,1.6e-4 -0.0982,0.005 -0.14648,0.0137 -0.0446,0.009 -0.0883,0.0211 -0.13086,0.0371 -0.005,10e-4 -0.0104,0.003 -0.0156,0.004 -0.001,6.5e-4 -0.003,10e-4 -0.004,0.002 -0.0462,0.0181 -0.0906,0.0403 -0.13282,0.0664 -0.001,6.5e-4 -0.003,10e-4 -0.004,0.002 -0.0201,0.0128 -0.0397,0.0265 -0.0586,0.041 -0.001,6.5e-4 -0.003,10e-4 -0.004,0.002 -0.0189,0.0148 -0.0372,0.0305 -0.0547,0.0469 -0.17031,0.15525 -0.26743,0.37501 -0.26758,0.60547 0,0 0.007,4.60418 0,5.91992 v 0.002 0.002 c 0,0.11344 -2e-5,0.15628 -2e-5,0.15628 0,0 -0.0903,-3e-5 -0.46091,-3e-5 -0.36235,0 -0.78964,0.003 -1.19336,-0.0488 -0.67169,-0.0865 -1.13068,-0.26715 -1.33399,-0.72461 -0.14679,-0.33029 -0.34543,-1.7908 -0.39844,-3.00977 -0.053,-1.21896 -0.0371,-2.2832 -0.0371,-2.2832 0.008,-0.45239 -0.3523,-0.8256 -0.80468,-0.83398 z"
             id="path3873-59" />
          <path
             style="color:#000000;font-style:normal;font-variant:normal;font-weight:normal;font-stretch:normal;font-size:medium;line-height:normal;font-family:sans-serif;font-variant-ligatures:normal;font-variant-position:normal;font-variant-caps:normal;font-variant-numeric:normal;font-variant-alternates:normal;font-variant-east-asian:normal;font-feature-settings:normal;font-variation-settings:normal;text-indent:0;text-align:start;text-decoration:none;text-decoration-line:none;text-decoration-style:solid;text-decoration-color:#000000;letter-spacing:normal;word-spacing:normal;text-transform:none;writing-mode:lr-tb;direction:ltr;text-orientation:mixed;dominant-baseline:auto;baseline-shift:baseline;text-anchor:start;white-space:normal;shape-padding:0;shape-margin:0;inline-size:0;clip-rule:nonzero;display:inline;overflow:visible;visibility:visible;isolation:auto;mix-blend-mode:normal;color-interpolation:sRGB;color-interpolation-filters:linearRGB;solid-color:#000000;solid-opacity:1;vector-effect:none;fill:#00b0f0;fill-opacity:1;fill-rule:nonzero;stroke:none;stroke-linecap:round;stroke-linejoin:miter;stroke-miterlimit:4;stroke-dasharray:none;stroke-dashoffset:0;stroke-opacity:1;color-rendering:auto;image-rendering:auto;shape-rendering:auto;text-rendering:auto;enable-background:accumulate;stop-color:#000000;stop-opacity:1"
             d="m 178.33594,291.08789 c -0.003,-6e-5 -0.003,0.006 -0.006,0.006 l -0.002,-0.004 -0.0488,0.0293 h 0.0234 c -0.43759,0.0197 -0.80924,0.34702 -0.8164,0.79102 0,0 -0.0184,1.10431 0.0371,2.38086 0.0555,1.27592 0.10723,2.63527 0.54101,3.61132 0.52235,1.17532 1.71246,1.57675 2.63282,1.69532 0.55346,0.0715 1.06275,0.0625 1.40625,0.0625 0.13792,0 0.42693,0 0.44726,0 v 0.21875 c 0,0.0997 -0.009,0.15858 -0.0215,0.19531 -0.0125,0.0367 -0.0281,0.0528 -0.0469,0.0742 -0.0341,0.039 -0.11416,0.0957 -0.26758,0.14258 -0.30614,0.0936 -0.80594,0.0918 -1.17578,0.0918 -0.0266,0 -0.0891,-0.006 -0.17383,-0.0176 -0.0847,-0.0113 -0.19258,-0.027 -0.3125,-0.0469 -0.23983,-0.0398 -0.52852,-0.0951 -0.7832,-0.15234 -0.50984,-0.11469 -0.94531,-0.23047 -0.94531,-0.23047 -0.44631,-0.11767 -0.90389,0.14937 -1.02149,0.5957 -0.11778,0.4457 0.14823,0.903 0.59375,1.02148 0,0 0.46081,0.12154 1.00586,0.24415 0.54459,0.12249 1.11161,0.25781 1.63672,0.25781 0.27923,0 0.95872,0.0508 1.66211,-0.16407 0.35182,-0.10749 0.73528,-0.29317 1.03906,-0.64062 0.3042,-0.34792 0.48243,-0.84562 0.48243,-1.37109 v -7.95508 c -3.5e-4,-0.13006 -0.0312,-0.25693 -0.0898,-0.37305 v -0.004 l -0.004,-0.004 0.002,0.006 c -0.0696,-0.13865 -0.17648,-0.25654 -0.30859,-0.33789 10e-5,1e-4 -0.001,4.5e-4 -0.002,0 v -0.002 c -6e-4,-4.5e-4 -0.002,-7e-5 -0.002,0 -0.0442,-0.0268 -0.0902,-0.0482 -0.13867,-0.0664 -0.023,-0.009 -0.0467,-0.0185 -0.0703,-0.0254 h -0.002 -0.002 -0.004 c -0.0225,-0.007 -0.0454,-0.0129 -0.0684,-0.0176 h -0.004 -0.002 c -0.0227,-0.004 -0.0465,-0.008 -0.0703,-0.01 -0.002,-10e-6 -0.004,-10e-6 -0.006,0 -0.0237,-0.002 -0.0456,-0.002 -0.0684,-0.002 -0.0501,1.6e-4 -0.10126,0.005 -0.15039,0.0137 -0.0453,0.009 -0.0894,0.0208 -0.13281,0.0371 -0.006,10e-4 -0.0107,0.003 -0.0137,0.004 h -0.002 l -0.004,0.002 c -7e-4,3.2e-4 -0.002,0.002 -0.002,0.002 -3.4e-4,1.9e-4 -0.004,0.002 -0.004,0.002 -0.0445,0.0178 -0.0881,0.0393 -0.12891,0.0645 0,0 -0.002,0 -0.002,0 -6.9e-4,3.1e-4 -0.002,0.002 -0.002,0.002 -3.5e-4,1.9e-4 -0.004,0.002 -0.004,0.002 -0.0189,0.0121 -0.0368,0.0254 -0.0547,0.0391 -7.2e-4,5.5e-4 -0.001,0.001 -0.002,0.002 -4.4e-4,2.1e-4 -0.002,-7e-5 -0.002,0 -3.5e-4,1.9e-4 -0.004,0.002 -0.004,0.002 -0.0189,0.0148 -0.0372,0.0305 -0.0547,0.0469 -0.17362,0.15827 -0.27328,0.38224 -0.27343,0.61719 0,0 0.007,4.60444 0,5.91992 v 0.002 0.002 c 0,0.10209 0,0.13266 0,0.14062 -0.007,0 -0.0869,0 -0.44336,0 -0.36244,0 -0.78918,0.003 -1.19141,-0.0488 -0.3349,-0.0431 -0.61634,-0.10884 -0.83789,-0.2207 -0.22155,-0.11186 -0.38422,-0.26878 -0.48438,-0.49414 -0.0355,-0.0798 -0.0752,-0.23361 -0.11523,-0.43555 -0.04,-0.20194 -0.0799,-0.45327 -0.11719,-0.73242 -0.0746,-0.55829 -0.13758,-1.22704 -0.16406,-1.83594 -0.053,-1.21841 -0.0371,-2.2832 -0.0371,-2.2832 0.008,-0.44918 -0.35454,-0.80134 -0.79883,-0.82812 l 0.0352,-0.0215 z m 5.04687,0.0312 c 0.0228,0 0.0445,3e-5 0.0664,0.002 h 0.002 c 0.002,-10e-6 0.004,-10e-6 0.006,0 0.0221,0.002 0.0438,0.006 0.0664,0.01 h 0.002 0.006 c 0.022,0.005 0.043,0.0111 0.0644,0.0176 h 0.004 0.002 c 0.0228,0.007 0.0446,0.0147 0.0664,0.0234 0.0466,0.0174 0.0922,0.0387 0.13476,0.0645 8.1e-4,5.9e-4 0.002,0.002 0.002,0.002 0,0 0.002,0 0.002,0 0,0 0,0.002 0,0.002 0.12649,0.0782 0.23013,0.18937 0.29688,0.32227 v 0.002 l 0.004,0.004 c 0.0551,0.11064 0.0837,0.23182 0.084,0.35547 v 7.95508 c 0,0.51822 -0.17627,1.00839 -0.47461,1.34961 -0.29875,0.34169 -0.6753,0.52449 -1.02344,0.63086 -0.69655,0.21281 -1.37129,0.16406 -1.6543,0.16406 -0.51959,0 -1.08403,-0.13525 -1.6289,-0.25782 -0.54441,-0.12245 -1.00586,-0.24414 -1.00586,-0.24414 -0.42883,-0.11404 -0.68369,-0.55342 -0.57032,-0.98242 0.11319,-0.42961 0.55284,-0.68552 0.98243,-0.57226 0,0 0.43477,0.11563 0.94531,0.23047 0.25552,0.0575 0.54479,0.11244 0.78516,0.15234 0.12018,0.0199 0.22925,0.0355 0.31445,0.0469 0.0852,0.0114 0.14642,0.0176 0.17773,0.0176 0.36966,0 0.8681,0.005 1.1836,-0.0918 0.1574,-0.0481 0.24313,-0.10656 0.2832,-0.15235 0.0184,-0.021 0.0384,-0.044 0.0527,-0.0859 0.0143,-0.042 0.0234,-0.10348 0.0234,-0.20507 v -0.25 h -0.0156 c 0,0 -0.32016,0 -0.46289,0 -0.34405,0 -0.85169,0.009 -1.40235,-0.0625 -0.91476,-0.11785 -2.09326,-0.5145 -2.60937,-1.67579 -0.42968,-0.9668 -0.48161,-2.32356 -0.53711,-3.5996 -0.0555,-1.27544 -0.0371,-2.38086 -0.0371,-2.38086 0.007,-0.44342 0.37337,-0.79514 0.8164,-0.78907 0.44297,0.009 0.7969,0.37322 0.78907,0.81641 0,0 -0.0159,1.06565 0.0371,2.28516 0.0265,0.61007 0.0894,1.27861 0.16406,1.83789 0.0374,0.27964 0.0789,0.53148 0.11914,0.73437 0.0402,0.2029 0.0793,0.35801 0.11719,0.44336 0.10315,0.2321 0.27135,0.39336 0.49804,0.50781 0.2267,0.11446 0.51283,0.18124 0.84961,0.22461 0.40521,0.052 0.83305,0.0488 1.19532,0.0488 0.3706,0 0.46093,0 0.46093,0 h 0.0156 v -0.0156 c 0,0 0,-0.0428 0,-0.15625 v -0.002 -0.002 c 0.007,-1.316 0,-5.91992 0,-5.91992 1.5e-4,-0.22597 0.0947,-0.44153 0.26172,-0.59375 0.0168,-0.0157 0.0346,-0.0307 0.0527,-0.0449 3e-4,-1.3e-4 0.001,3.2e-4 0.002,0 v -0.002 c 5.9e-4,-3.1e-4 0.002,7e-5 0.002,0 h 0.002 c 0.0185,-0.0142 0.0369,-0.0285 0.0566,-0.041 3e-4,-1.3e-4 0.001,3.2e-4 0.002,0 v -0.002 c 5.9e-4,-3e-4 0.002,7e-5 0.002,0 0.0414,-0.0256 0.0856,-0.0467 0.13086,-0.0645 v -0.002 c 8.3e-4,-1.6e-4 0.001,1.7e-4 0.002,0 9.8e-4,-2.2e-4 0.001,-0.002 0.002,-0.002 0.005,-0.001 0.009,-0.001 0.0117,-0.002 h 0.002 0.002 c 0.0417,-0.0157 0.0831,-0.0283 0.12695,-0.0371 0.0474,-0.009 0.0965,-0.0135 0.14453,-0.0137 z"
             id="path3875-2" />
        </g>
        <g
           id="path4741-0-3-1-2-8"
           style="opacity:1;fill:#00b0f0;fill-opacity:1">
          <path
             style="color:#000000;font-style:normal;font-variant:normal;font-weight:normal;font-stretch:normal;font-size:medium;line-height:normal;font-family:sans-serif;font-variant-ligatures:normal;font-variant-position:normal;font-variant-caps:normal;font-variant-numeric:normal;font-variant-alternates:normal;font-variant-east-asian:normal;font-feature-settings:normal;font-variation-settings:normal;text-indent:0;text-align:start;text-decoration:none;text-decoration-line:none;text-decoration-style:solid;text-decoration-color:#000000;letter-spacing:normal;word-spacing:normal;text-transform:none;writing-mode:lr-tb;direction:ltr;text-orientation:mixed;dominant-baseline:auto;baseline-shift:baseline;text-anchor:start;white-space:normal;shape-padding:0;shape-margin:0;inline-size:0;clip-rule:nonzero;display:inline;overflow:visible;visibility:visible;isolation:auto;mix-blend-mode:normal;color-interpolation:sRGB;color-interpolation-filters:linearRGB;solid-color:#000000;solid-opacity:1;vector-effect:none;fill:#00b0f0;fill-opacity:1;fill-rule:nonzero;stroke:none;stroke-width:0;stroke-linecap:round;stroke-linejoin:miter;stroke-miterlimit:4;stroke-dasharray:none;stroke-dashoffset:0;stroke-opacity:1;color-rendering:auto;image-rendering:auto;shape-rendering:auto;text-rendering:auto;enable-background:accumulate;stop-color:#000000;stop-opacity:1"
             d="m 178.33594,291.08789 c -0.003,-6e-5 -0.003,0.006 -0.006,0.006 l -0.002,-0.004 -0.0488,0.0293 h 0.0234 c -0.43759,0.0197 -0.80924,0.34702 -0.8164,0.79102 0,0 -0.0184,1.10431 0.0371,2.38086 0.0555,1.27592 0.10723,2.63527 0.54101,3.61132 0.52235,1.17532 1.71246,1.57675 2.63282,1.69532 0.55346,0.0715 1.06275,0.0625 1.40625,0.0625 h 0.44726 v 0.21875 c 0,0.0997 -0.009,0.15858 -0.0215,0.19531 -0.0125,0.0367 -0.0281,0.0528 -0.0469,0.0742 -0.0341,0.039 -0.11416,0.0957 -0.26758,0.14258 -0.30614,0.0936 -0.80594,0.0918 -1.17578,0.0918 -0.0266,0 -0.0891,-0.006 -0.17383,-0.0176 -0.0847,-0.0113 -0.19258,-0.027 -0.3125,-0.0469 -0.23983,-0.0398 -0.52852,-0.0951 -0.7832,-0.15234 -0.50984,-0.11469 -0.94531,-0.23047 -0.94531,-0.23047 -0.44631,-0.11767 -0.90389,0.14937 -1.02149,0.5957 -0.11778,0.4457 0.14823,0.903 0.59375,1.02148 0,0 0.46081,0.12154 1.00586,0.24415 0.54459,0.12249 1.11161,0.25781 1.63672,0.25781 0.27923,0 0.95872,0.0508 1.66211,-0.16407 0.35182,-0.10749 0.73528,-0.29317 1.03906,-0.64062 0.3042,-0.34792 0.48243,-0.84562 0.48243,-1.37109 v -7.95508 c -3.5e-4,-0.13006 -0.0312,-0.25693 -0.0898,-0.37305 v -0.004 l -0.004,-0.004 0.002,0.006 c -0.0696,-0.13865 -0.17648,-0.25654 -0.30859,-0.33789 10e-5,1e-4 -0.001,4.5e-4 -0.002,0 v -0.002 c -6e-4,-4.5e-4 -0.002,-7e-5 -0.002,0 -0.0442,-0.0268 -0.0902,-0.0482 -0.13867,-0.0664 -0.023,-0.009 -0.0467,-0.0185 -0.0703,-0.0254 h -0.002 -0.002 -0.004 c -0.0225,-0.007 -0.0454,-0.0129 -0.0684,-0.0176 h -0.004 -0.002 c -0.0227,-0.004 -0.0465,-0.008 -0.0703,-0.01 -0.002,-10e-6 -0.004,-10e-6 -0.006,0 -0.0237,-0.002 -0.0456,-0.002 -0.0684,-0.002 -0.0501,1.6e-4 -0.10126,0.005 -0.15039,0.0137 -0.0453,0.009 -0.0894,0.0208 -0.13281,0.0371 -0.006,10e-4 -0.0107,0.003 -0.0137,0.004 h -0.002 l -0.004,0.002 c -7e-4,3.2e-4 -0.002,0.002 -0.002,0.002 -3.4e-4,1.9e-4 -0.004,0.002 -0.004,0.002 -0.0445,0.0178 -0.0881,0.0393 -0.12891,0.0645 h -0.002 c -6.9e-4,3.1e-4 -0.002,0.002 -0.002,0.002 -3.5e-4,1.9e-4 -0.004,0.002 -0.004,0.002 -0.0189,0.0121 -0.0368,0.0254 -0.0547,0.0391 -7.2e-4,5.5e-4 -0.001,0.001 -0.002,0.002 -4.4e-4,2.1e-4 -0.002,-7e-5 -0.002,0 -3.5e-4,1.9e-4 -0.004,0.002 -0.004,0.002 -0.0189,0.0148 -0.0372,0.0305 -0.0547,0.0469 -0.17362,0.15827 -0.27328,0.38224 -0.27343,0.61719 0,0 0.007,4.60444 0,5.91992 v 0.002 0.002 0.14062 h -0.44336 c -0.36244,0 -0.78918,0.003 -1.19141,-0.0488 -0.3349,-0.0431 -0.61634,-0.10884 -0.83789,-0.2207 -0.22155,-0.11186 -0.38422,-0.26878 -0.48438,-0.49414 -0.0355,-0.0798 -0.0752,-0.23361 -0.11523,-0.43555 -0.04,-0.20194 -0.0799,-0.45327 -0.11719,-0.73242 -0.0746,-0.55829 -0.13758,-1.22704 -0.16406,-1.83594 -0.053,-1.21841 -0.0371,-2.2832 -0.0371,-2.2832 0.008,-0.44918 -0.35454,-0.80134 -0.79883,-0.82812 l 0.0352,-0.0215 z m 5.04687,0.0312 c 0.0228,0 0.0445,3e-5 0.0664,0.002 h 0.002 c 0.002,-10e-6 0.004,-10e-6 0.006,0 0.0221,0.002 0.0438,0.006 0.0664,0.01 h 0.002 0.006 c 0.022,0.005 0.043,0.0111 0.0644,0.0176 h 0.004 0.002 c 0.0228,0.007 0.0446,0.0147 0.0664,0.0234 0.0466,0.0174 0.0922,0.0387 0.13476,0.0645 8.1e-4,5.9e-4 0.002,0.002 0.002,0.002 h 0.002 v 0.002 c 0.12649,0.0782 0.23013,0.18937 0.29688,0.32227 v 0.002 l 0.004,0.004 c 0.0551,0.11064 0.0837,0.23182 0.084,0.35547 v 7.95508 c 0,0.51822 -0.17627,1.00839 -0.47461,1.34961 -0.29875,0.34169 -0.6753,0.52449 -1.02344,0.63086 -0.69655,0.21281 -1.37129,0.16406 -1.6543,0.16406 -0.51959,0 -1.08403,-0.13525 -1.6289,-0.25782 -0.54441,-0.12245 -1.00586,-0.24414 -1.00586,-0.24414 -0.42883,-0.11404 -0.68369,-0.55342 -0.57032,-0.98242 0.11319,-0.42961 0.55284,-0.68552 0.98243,-0.57226 0,0 0.43477,0.11563 0.94531,0.23047 0.25552,0.0575 0.54479,0.11244 0.78516,0.15234 0.12018,0.0199 0.22925,0.0355 0.31445,0.0469 0.0852,0.0114 0.14642,0.0176 0.17773,0.0176 0.36966,0 0.8681,0.005 1.1836,-0.0918 0.1574,-0.0481 0.24313,-0.10656 0.2832,-0.15235 0.0184,-0.021 0.0384,-0.044 0.0527,-0.0859 0.0143,-0.042 0.0234,-0.10348 0.0234,-0.20507 v -0.25 h -0.0156 -0.46289 c -0.34405,0 -0.85169,0.009 -1.40235,-0.0625 -0.91476,-0.11785 -2.09326,-0.5145 -2.60937,-1.67579 -0.42968,-0.9668 -0.48161,-2.32356 -0.53711,-3.5996 -0.0555,-1.27544 -0.0371,-2.38086 -0.0371,-2.38086 0.007,-0.44342 0.37337,-0.79514 0.8164,-0.78907 0.44297,0.009 0.7969,0.37322 0.78907,0.81641 0,0 -0.0159,1.06565 0.0371,2.28516 0.0265,0.61007 0.0894,1.27861 0.16406,1.83789 0.0374,0.27964 0.0789,0.53148 0.11914,0.73437 0.0402,0.2029 0.0793,0.35801 0.11719,0.44336 0.10315,0.2321 0.27135,0.39336 0.49804,0.50781 0.2267,0.11446 0.51283,0.18124 0.84961,0.22461 0.40521,0.052 0.83305,0.0488 1.19532,0.0488 h 0.46093 0.0156 v -0.0156 -0.15625 -0.002 -0.002 c 0.007,-1.316 0,-5.91992 0,-5.91992 1.5e-4,-0.22597 0.0947,-0.44153 0.26172,-0.59375 0.0168,-0.0157 0.0346,-0.0307 0.0527,-0.0449 3e-4,-1.3e-4 0.001,3.2e-4 0.002,0 v -0.002 c 5.9e-4,-3.1e-4 0.002,7e-5 0.002,0 h 0.002 c 0.0185,-0.0142 0.0369,-0.0285 0.0566,-0.041 3e-4,-1.3e-4 0.001,3.2e-4 0.002,0 v -0.002 c 5.9e-4,-3e-4 0.002,7e-5 0.002,0 0.0414,-0.0256 0.0856,-0.0467 0.13086,-0.0645 v -0.002 c 8.3e-4,-1.6e-4 0.001,1.7e-4 0.002,0 9.8e-4,-2.2e-4 0.001,-0.002 0.002,-0.002 0.005,-0.001 0.009,-0.001 0.0117,-0.002 h 0.002 0.002 c 0.0417,-0.0157 0.0831,-0.0283 0.12695,-0.0371 0.0474,-0.009 0.0965,-0.0135 0.14453,-0.0137 z"
             id="path3879-3" />
          <path
             style="color:#000000;font-style:normal;font-variant:normal;font-weight:normal;font-stretch:normal;font-size:medium;line-height:normal;font-family:sans-serif;font-variant-ligatures:normal;font-variant-position:normal;font-variant-caps:normal;font-variant-numeric:normal;font-variant-alternates:normal;font-variant-east-asian:normal;font-feature-settings:normal;font-variation-settings:normal;text-indent:0;text-align:start;text-decoration:none;text-decoration-line:none;text-decoration-style:solid;text-decoration-color:#000000;letter-spacing:normal;word-spacing:normal;text-transform:none;writing-mode:lr-tb;direction:ltr;text-orientation:mixed;dominant-baseline:auto;baseline-shift:baseline;text-anchor:start;white-space:normal;shape-padding:0;shape-margin:0;inline-size:0;clip-rule:nonzero;display:inline;overflow:visible;visibility:visible;isolation:auto;mix-blend-mode:normal;color-interpolation:sRGB;color-interpolation-filters:linearRGB;solid-color:#000000;solid-opacity:1;vector-effect:none;fill:#00b0f0;fill-opacity:1;fill-rule:nonzero;stroke:none;stroke-linecap:round;stroke-linejoin:miter;stroke-miterlimit:4;stroke-dasharray:none;stroke-dashoffset:0;stroke-opacity:1;color-rendering:auto;image-rendering:auto;shape-rendering:auto;text-rendering:auto;enable-background:accumulate;stop-color:#000000;stop-opacity:1"
             d="m 178.33398,291.06641 -0.11328,0.0684 h 0.0488 c -0.42219,0.0427 -0.79181,0.3404 -0.79883,0.77539 0,0 -0.0184,1.10375 0.0371,2.38086 0.0555,1.27585 0.10519,2.63653 0.54102,3.61718 0.52546,1.18233 1.72332,1.58615 2.64648,1.70508 0.55487,0.0717 1.06499,0.0625 1.40821,0.0625 h 0.43164 v 0.20313 c 0,0.0987 -0.01,0.15544 -0.0215,0.18945 -0.0117,0.0342 -0.0239,0.0486 -0.043,0.0703 -0.031,0.0354 -0.11026,0.0904 -0.26172,0.13672 -0.30142,0.0922 -0.80003,0.0918 -1.16992,0.0918 -0.0242,0 -0.0875,-0.006 -0.17187,-0.0176 -0.0845,-0.0113 -0.19277,-0.027 -0.3125,-0.0469 -0.23952,-0.0397 -0.52695,-0.0952 -0.78125,-0.15234 -0.5095,-0.11461 -0.94531,-0.23047 -0.94532,-0.23047 -0.45468,-0.11988 -0.92121,0.15273 -1.04101,0.60742 -0.11999,0.45407 0.15159,0.92032 0.60547,1.04102 0,0 0.46048,0.12146 1.00586,0.24414 0.54445,0.12246 1.11276,0.25781 1.64062,0.25781 0.27729,0 0.9592,0.0519 1.66602,-0.16406 0.35364,-0.10805 0.74056,-0.29614 1.04687,-0.64648 0.30714,-0.35129 0.48633,-0.85178 0.48633,-1.38086 v -7.95508 c -3.5e-4,-0.12984 -0.0325,-0.25675 -0.0898,-0.37305 v -0.01 l -0.004,-0.004 -0.004,-0.006 -0.004,0.002 c -0.0697,-0.13444 -0.17255,-0.2493 -0.30078,-0.33008 v -0.002 l -0.006,-0.004 v -0.002 c -5e-5,-3e-5 -0.003,7e-4 -0.004,0 -10e-4,-7.6e-4 -0.003,-10e-4 -0.004,-0.002 -0.044,-0.0263 -0.0889,-0.0484 -0.13672,-0.0664 -0.0229,-0.009 -0.0476,-0.0182 -0.0723,-0.0254 h -0.002 -0.004 -0.002 -0.004 c -0.0218,-0.007 -0.0441,-0.013 -0.0664,-0.0176 h -0.006 -0.002 c -0.0223,-0.004 -0.0463,-0.008 -0.0703,-0.01 -0.002,-10e-6 -0.004,-10e-6 -0.006,0 -0.0245,-0.002 -0.0456,-0.002 -0.0684,-0.002 -0.0511,1.6e-4 -0.10429,0.005 -0.15429,0.0137 -0.046,0.009 -0.0904,0.0204 -0.13477,0.0371 -0.007,10e-4 -0.0122,0.003 -0.0137,0.004 l -0.008,0.004 v -0.002 c -9e-5,4e-5 -0.004,0.002 -0.004,0.002 0,0 0,0.002 0,0.002 0,0 -0.002,0 -0.002,0 -0.0439,0.0176 -0.0864,0.0397 -0.12696,0.0645 h -0.004 c -9e-5,3e-5 -0.004,0.002 -0.004,0.002 0,0 0,0.002 0,0.002 0,0 -0.002,0.002 -0.002,0.002 h -0.002 c -0.0191,0.0122 -0.0371,0.0275 -0.0547,0.041 -6e-5,3e-5 0.004,-0.002 0.004,-0.002 0,0 0,0.0156 0,0.0156 l -0.006,-0.0117 c 0,0 -0.002,0 -0.002,0 h -0.002 -0.002 l -0.002,0.002 c -0.0193,0.0151 -0.0368,0.0302 -0.0547,0.0469 -0.17692,0.16128 -0.27914,0.38944 -0.27929,0.62891 0,0 0.007,4.6047 0,5.91992 v 0.002 0.002 0.125 h -0.42774 c -0.36253,0 -0.78872,0.003 -1.18945,-0.0488 -0.33398,-0.043 -0.6131,-0.10821 -0.83203,-0.21875 -0.21899,-0.11057 -0.3779,-0.26433 -0.47656,-0.48633 -0.0342,-0.0769 -0.0753,-0.23016 -0.11524,-0.43164 -0.0399,-0.20145 -0.0799,-0.45351 -0.11719,-0.73242 -0.0745,-0.5578 -0.1376,-1.22568 -0.16406,-1.83399 -0.053,-1.21786 -0.0371,-2.2832 -0.0371,-2.2832 0.008,-0.44659 -0.35615,-0.77978 -0.79297,-0.82227 l 0.0703,-0.043 h -0.11133 z m 4.9004,0.0508 c -0.0441,0.009 -0.0852,0.0214 -0.12696,0.0371 h -0.002 -0.002 v -0.002 c 0.0425,-0.0159 0.0862,-0.0263 0.13086,-0.0351 z m -4.93165,0.006 h 0.002 0.01 c -0.006,1.4e-4 -0.005,0.0114 -0.0117,0.0117 z m 0.0508,0.002 h 0.002 c 0.4364,0.0263 0.79105,0.37207 0.7832,0.8125 0.008,-0.44108 -0.34873,-0.78682 -0.78515,-0.8125 z m 5.02539,0.01 c 0.001,-2e-5 0.003,0 0.004,0 0.0228,0 0.0435,6e-5 0.0645,0.002 h 0.002 0.002 c 0.002,-10e-6 0.004,-10e-6 0.006,0 0.0205,0.002 0.0424,0.006 0.0644,0.01 h 0.004 0.006 c 0.0201,0.005 0.0405,0.0115 0.0606,0.0176 h 0.002 0.006 c 0.0217,0.007 0.0417,0.0151 0.0625,0.0234 0.0444,0.0166 0.0884,0.0364 0.12891,0.0605 v 0.002 h 0.002 l 0.004,0.002 v 0.002 h 0.002 c 0.12325,0.0762 0.22364,0.18539 0.28906,0.31445 v 0.004 l 0.006,0.004 c 0.054,0.10845 0.0817,0.22645 0.082,0.34766 v 7.95508 c 0,0.51459 -0.1753,1.00199 -0.4707,1.33984 -0.29623,0.3388 -0.6693,0.51918 -1.01563,0.625 -0.69313,0.21177 -1.36554,0.16406 -1.65039,0.16406 -0.51681,0 -1.07998,-0.13521 -1.625,-0.25781 -0.54408,-0.12238 -1.00586,-0.24414 -1.00586,-0.24414 -0.42048,-0.11182 -0.66976,-0.54223 -0.55859,-0.96289 0.11099,-0.42125 0.54165,-0.67161 0.96289,-0.56055 0,0 0.43638,0.11555 0.94727,0.23047 0.25591,0.0576 0.54449,0.1124 0.78515,0.15234 0.12039,0.0199 0.22913,0.0355 0.31446,0.0469 0.0854,0.0114 0.14626,0.0176 0.17968,0.0176 0.36952,0 0.86929,0.006 1.18946,-0.0918 0.15931,-0.0487 0.24598,-0.10703 0.28906,-0.15625 0.0184,-0.021 0.0414,-0.0473 0.0566,-0.0918 0.0152,-0.0445 0.0234,-0.10839 0.0234,-0.21093 v -0.26563 h -0.0312 -0.46289 c -0.34433,0 -0.85115,0.009 -1.4004,-0.0625 -0.91197,-0.11749 -2.08271,-0.51175 -2.5957,-1.66601 -0.42762,-0.96216 -0.4816,-2.31766 -0.53711,-3.59375 -0.0555,-1.27489 -0.0371,-2.38086 -0.0371,-2.38086 0.007,-0.43475 0.36634,-0.77939 0.80078,-0.77344 0.43438,0.009 0.78112,0.36626 0.77344,0.80078 0,0 -0.0159,1.06706 0.0371,2.28711 0.0265,0.61066 0.0893,1.27812 0.16406,1.83789 0.0374,0.27993 0.0788,0.53302 0.11914,0.73633 0.0403,0.20331 0.08,0.35907 0.11915,0.44726 0.10465,0.23549 0.27661,0.39989 0.50585,0.51563 0.2293,0.11577 0.51582,0.18112 0.85352,0.22461 0.4067,0.0522 0.83509,0.0488 1.19727,0.0488 h 0.46093 0.0312 v -0.0312 -0.15625 -0.002 -0.002 c 0.007,-1.31626 0,-5.91992 0,-5.91992 1.5e-4,-0.22152 0.0941,-0.43285 0.25782,-0.58203 0.0157,-0.0147 0.0318,-0.0276 0.0488,-0.041 l 0.004,-0.002 0.004,-0.002 c 7.2e-4,-5.6e-4 0.001,-10e-4 0.002,-0.002 0.0171,-0.0131 0.0354,-0.0259 0.0527,-0.0371 7.4e-4,-4.7e-4 0.001,-0.001 0.002,-0.002 7e-5,-4e-5 -0.004,2e-5 -0.004,0 0,0 -0.002,0 -0.002,0 0,0 0,-0.0156 0,-0.0156 l 0.008,0.0117 -0.002,0.004 0.01,-0.002 v -0.002 c 0.0389,-0.0236 0.0785,-0.0438 0.1211,-0.0605 l 0.008,-0.004 h 0.004 v -0.002 h 0.004 0.002 0.002 c 0.0411,-0.0155 0.0821,-0.0285 0.125,-0.0371 0.0451,-0.009 0.0909,-0.0133 0.13672,-0.0137 z m -0.27735,0.0195 c 0,0 0,0.002 0,0.002 -0.001,1.7e-4 -0.004,-3.7e-4 -0.006,0 0.002,-5.9e-4 0.004,-0.002 0.006,-0.002 z m -0.0176,0.006 h 0.002 c -3.5e-4,2.6e-4 2.6e-4,0.002 0,0.002 0,0 -0.002,-0.002 -0.002,-0.002 z m 0.74219,0.0371 0.002,0.002 -0.006,0.008 c -2e-4,-10e-4 2.5e-4,-0.002 0,-0.004 z m -0.88281,0.0351 c -0.0163,0.0108 -0.0319,0.0237 -0.0469,0.0352 h -0.002 c 0.0159,-0.0121 0.0325,-0.0246 0.0488,-0.0352 z m -0.0625,0.043 v 0.002 c -0.0169,0.0134 -0.033,0.0262 -0.0488,0.041 -0.17035,0.15526 -0.26742,0.37504 -0.26758,0.60547 0,0 0.007,4.60418 0,5.91992 v 0.002 0.002 0.15625 h -0.004 v -0.15625 -0.002 -0.002 c 0.007,-1.31574 0,-5.91992 0,-5.91992 1.4e-4,-0.23043 0.0992,-0.45021 0.26953,-0.60547 3.7e-4,-3.5e-4 0.002,3.4e-4 0.002,0 0.0161,-0.0151 0.0315,-0.0293 0.0488,-0.043 z m -0.38672,8.88281 c -3.2e-4,3.7e-4 3.2e-4,0.002 0,0.002 -0.0371,0.0423 -0.1199,0.099 -0.27539,0.14648 0.15538,-0.0475 0.23818,-0.10588 0.27539,-0.14844 z"
             id="path3881-76" />
        </g>
      </g>
    </g>
    <g
       id="g1524-4-3-2"
       transform="translate(-957.28959,-5548.5366)"
       style="fill:#b4b4b4;fill-opacity:1;stroke:#000000;stroke-opacity:1">
      <g
         id="g1726-9-3-9"
         style="fill:#b4b4b4;fill-opacity:1;stroke:#000000;stroke-opacity:1">
        <g
           id="g1816-7-85"
           style="fill:#b4b4b4;fill-opacity:1;stroke:#000000;stroke-opacity:1">
          <g
             id="path980-0-0-7-6-9-37-9-9-0-9"
             style="opacity:1;fill:#b4b4b4;fill-opacity:1">
            <path
               style="color:#000000;font-style:normal;font-variant:normal;font-weight:normal;font-stretch:normal;font-size:50.8px;line-height:1.25;font-family:sans-serif;font-variant-ligatures:normal;font-variant-position:normal;font-variant-caps:normal;font-variant-numeric:normal;font-variant-alternates:normal;font-variant-east-asian:normal;font-feature-settings:normal;font-variation-settings:normal;text-indent:0;text-align:end;text-decoration:none;text-decoration-line:none;text-decoration-style:solid;text-decoration-color:#000000;letter-spacing:normal;word-spacing:normal;text-transform:none;writing-mode:lr-tb;direction:ltr;text-orientation:mixed;dominant-baseline:auto;baseline-shift:baseline;text-anchor:end;white-space:normal;shape-padding:0;shape-margin:0;inline-size:0;clip-rule:nonzero;display:inline;overflow:visible;visibility:visible;isolation:auto;mix-blend-mode:normal;color-interpolation:sRGB;color-interpolation-filters:linearRGB;solid-color:#000000;solid-opacity:1;vector-effect:none;fill:#b4b4b4;fill-opacity:1;fill-rule:nonzero;stroke:none;stroke-width:0.265;stroke-linecap:round;stroke-linejoin:miter;stroke-miterlimit:4;stroke-dasharray:none;stroke-dashoffset:0;stroke-opacity:1;color-rendering:auto;image-rendering:auto;shape-rendering:auto;text-rendering:auto;enable-background:accumulate;stop-color:#000000;stop-opacity:1"
               d="m 1275.4289,5529.9289 c -6.1173,-4e-4 -11.0765,4.9588 -11.0762,11.0761 v 107.4473 c 0,12.7215 6.6865,23.014 14.7519,27.3418 8.0654,4.3277 15.9384,4.2461 20.7442,4.2461 6.4019,0 12.8348,-1.4307 18.4297,-2.7266 5.5948,-1.2958 10.0625,-2.5976 10.0625,-2.5976 5.8736,-1.7094 9.2491,-7.857 7.539,-13.7305 -1.7094,-5.8736 -7.857,-9.2491 -13.7304,-7.5391 0,0 -3.9208,1.141 -8.8692,2.2871 -4.9484,1.1462 -11.2129,2.1563 -13.4316,2.1563 -3.9854,0 -8.3227,-0.5706 -10.2696,-1.6152 -1.9468,-1.0447 -3.0761,-1.0078 -3.0761,-7.8223 V 5541.005 c 3e-4,-6.1165 -4.9577,-11.0754 -11.0742,-11.0761 z"
               id="path3885-2" />
            <path
               style="color:#000000;font-style:normal;font-variant:normal;font-weight:normal;font-stretch:normal;font-size:50.8px;line-height:1.25;font-family:sans-serif;font-variant-ligatures:normal;font-variant-position:normal;font-variant-caps:normal;font-variant-numeric:normal;font-variant-alternates:normal;font-variant-east-asian:normal;font-feature-settings:normal;font-variation-settings:normal;text-indent:0;text-align:end;text-decoration:none;text-decoration-line:none;text-decoration-style:solid;text-decoration-color:#000000;letter-spacing:normal;word-spacing:normal;text-transform:none;writing-mode:lr-tb;direction:ltr;text-orientation:mixed;dominant-baseline:auto;baseline-shift:baseline;text-anchor:end;white-space:normal;shape-padding:0;shape-margin:0;inline-size:0;clip-rule:nonzero;display:inline;overflow:visible;visibility:visible;isolation:auto;mix-blend-mode:normal;color-interpolation:sRGB;color-interpolation-filters:linearRGB;solid-color:#000000;solid-opacity:1;vector-effect:none;fill:#b4b4b4;fill-opacity:1;fill-rule:nonzero;stroke:none;stroke-linecap:round;stroke-linejoin:miter;stroke-miterlimit:4;stroke-dasharray:none;stroke-dashoffset:0;stroke-opacity:1;color-rendering:auto;image-rendering:auto;shape-rendering:auto;text-rendering:auto;enable-background:accumulate;stop-color:#000000;stop-opacity:1"
               d="m 1275.4297,5529.7969 c -6.189,-4e-4 -11.2093,5.02 -11.209,11.209 v 107.4472 c 0,12.768 6.7047,23.1023 14.8203,27.4571 8.0977,4.345 16.0043,4.2617 20.8086,4.2617 6.4217,0 12.8632,-1.4324 18.459,-2.7285 5.5987,-1.2967 10.0703,-2.5997 10.0703,-2.5996 5.9424,-1.7295 9.359,-7.9524 7.6289,-13.8946 -1.7294,-5.9424 -7.9523,-9.3609 -13.8945,-7.6308 0,0 -3.9187,1.1399 -8.8633,2.2851 -4.9411,1.1445 -11.2219,2.1543 -13.4004,2.1543 -3.9727,0 -8.3147,-0.5843 -10.207,-1.5996 -0.9834,-0.5277 -1.7103,-0.7593 -2.2149,-1.6934 -0.5045,-0.934 -0.7929,-2.6117 -0.7929,-6.0117 v -107.4472 c 3e-4,-6.1882 -5.017,-11.2083 -11.2051,-11.209 z m 0,0.2636 c 6.0449,8e-4 10.9417,4.9004 10.9414,10.9454 v 107.4472 c 0,3.4146 0.2774,5.1244 0.8242,6.1367 0.5468,1.0123 1.3569,1.2838 2.3203,1.8008 2.0015,1.0739 6.336,1.6309 10.334,1.6309 2.2589,0 8.5053,-1.0103 13.4609,-2.1582 4.9523,-1.147 8.877,-2.2891 8.877,-2.2891 5.8047,-1.69 11.8751,1.6444 13.5645,7.4492 1.69,5.8047 -1.6424,11.8751 -7.4473,13.5645 0,0 -4.4658,1.3008 -10.0567,2.5957 -5.594,1.2957 -12.0162,2.7246 -18.3984,2.7246 -4.8073,0 -12.6485,0.08 -20.6816,-4.2305 -8.0152,-4.3008 -14.6836,-14.5495 -14.6836,-27.2246 v -107.4472 c -3e-4,-6.0458 4.8996,-10.9457 10.9453,-10.9454 z"
               id="path3887-5" />
          </g>
          <path
             style="color:#000000;font-style:normal;font-variant:normal;font-weight:normal;font-stretch:normal;font-size:50.8px;line-height:1.25;font-family:sans-serif;font-variant-ligatures:normal;font-variant-position:normal;font-variant-caps:normal;font-variant-numeric:normal;font-variant-alternates:normal;font-variant-east-asian:normal;font-feature-settings:normal;font-variation-settings:normal;text-indent:0;text-align:end;text-decoration:none;text-decoration-line:none;text-decoration-style:solid;text-decoration-color:#000000;letter-spacing:normal;word-spacing:normal;text-transform:none;writing-mode:lr-tb;direction:ltr;text-orientation:mixed;dominant-baseline:auto;baseline-shift:baseline;text-anchor:end;white-space:normal;shape-padding:0;shape-margin:0;inline-size:0;clip-rule:nonzero;display:inline;overflow:visible;visibility:visible;opacity:1;isolation:auto;mix-blend-mode:normal;color-interpolation:sRGB;color-interpolation-filters:linearRGB;solid-color:#000000;solid-opacity:1;vector-effect:none;fill:#b4b4b4;fill-opacity:1;fill-rule:nonzero;stroke:none;stroke-linecap:round;stroke-linejoin:miter;stroke-miterlimit:4;stroke-dasharray:none;stroke-dashoffset:0;stroke-opacity:1;color-rendering:auto;image-rendering:auto;shape-rendering:auto;text-rendering:auto;enable-background:accumulate;stop-color:#000000;stop-opacity:1"
             d="m 1259.6777,5560.625 a 11.0755,11.0755 0 0 0 -11.0742,11.0742 11.0755,11.0755 0 0 0 11.0742,11.0762 h 55.2852 a 11.0755,11.0755 0 0 0 11.0762,-11.0762 11.0755,11.0755 0 0 0 -11.0762,-11.0742 z"
             id="path982-4-4-5-3-1-0-0-59" />
        </g>
      </g>
    </g>
    <g
       id="g5605"
       transform="translate(-523.78884,-7102.8108)">
      <path
         style="color:#000000;font-style:normal;font-variant:normal;font-weight:normal;font-stretch:normal;font-size:medium;line-height:normal;font-family:sans-serif;font-variant-ligatures:normal;font-variant-position:normal;font-variant-caps:normal;font-variant-numeric:normal;font-variant-alternates:normal;font-variant-east-asian:normal;font-feature-settings:normal;font-variation-settings:normal;text-indent:0;text-align:start;text-decoration:none;text-decoration-line:none;text-decoration-style:solid;text-decoration-color:#000000;letter-spacing:normal;word-spacing:normal;text-transform:none;writing-mode:lr-tb;direction:ltr;text-orientation:mixed;dominant-baseline:auto;baseline-shift:baseline;text-anchor:start;white-space:normal;shape-padding:0;shape-margin:0;inline-size:0;clip-rule:nonzero;display:inline;overflow:visible;visibility:visible;isolation:auto;mix-blend-mode:normal;color-interpolation:sRGB;color-interpolation-filters:linearRGB;solid-color:#000000;solid-opacity:1;vector-effect:none;fill:#00b0f0;fill-opacity:1;fill-rule:nonzero;stroke:none;stroke-linecap:round;stroke-linejoin:round;stroke-miterlimit:4;stroke-dasharray:none;stroke-dashoffset:0;stroke-opacity:1;color-rendering:auto;image-rendering:auto;shape-rendering:auto;text-rendering:auto;enable-background:accumulate;stop-color:#000000"
         d="m 192.93581,7133.1574 c -9.5273,0 -17.7603,4.0593 -23.6328,9.1035 -5.8725,5.0443 -9.9873,10.89 -13.748,16.0645 a 11.0755,11.0755 0 0 0 2.4492,15.4707 11.0755,11.0755 0 0 0 15.4707,-2.4473 c 3.7438,-5.1512 7.1462,-9.609 10.2617,-12.2851 3.1155,-2.6761 5.3416,-3.7559 9.1992,-3.7559 3.8753,0 6.1089,1.0893 9.2422,3.793 3.1333,2.7037 6.5528,7.2041 10.3223,12.3906 3.7694,5.1865 7.889,11.0588 13.7715,16.1348 5.8824,5.076 14.1416,9.1738 23.7128,9.1738 9.6011,0 17.8783,-4.123 23.7676,-9.2207 5.8893,-5.0977 10.0116,-10.9906 13.7871,-16.1855 a 11.0755,11.0755 0 0 0 -2.4492,-15.4707 11.0755,11.0755 0 0 0 -15.4707,2.4472 c -3.787,5.2107 -7.2179,9.7383 -10.3633,12.461 -3.1454,2.7226 -5.3841,3.8183 -9.2715,3.8183 -3.8752,0 -6.1088,-1.0892 -9.2421,-3.7929 -3.1333,-2.7038 -6.5529,-7.2022 -10.3223,-12.3887 -3.7694,-5.1865 -7.889,-11.0607 -13.7715,-16.1367 -5.8825,-5.076 -14.1417,-9.1739 -23.7129,-9.1739 z"
         id="path896-9-3-00-1" />
      <path
         style="color:#000000;font-style:normal;font-variant:normal;font-weight:normal;font-stretch:normal;font-size:medium;line-height:normal;font-family:sans-serif;font-variant-ligatures:normal;font-variant-position:normal;font-variant-caps:normal;font-variant-numeric:normal;font-variant-alternates:normal;font-variant-east-asian:normal;font-feature-settings:normal;font-variation-settings:normal;text-indent:0;text-align:start;text-decoration:none;text-decoration-line:none;text-decoration-style:solid;text-decoration-color:#000000;letter-spacing:normal;word-spacing:normal;text-transform:none;writing-mode:lr-tb;direction:ltr;text-orientation:mixed;dominant-baseline:auto;baseline-shift:baseline;text-anchor:start;white-space:normal;shape-padding:0;shape-margin:0;inline-size:0;clip-rule:nonzero;display:inline;overflow:visible;visibility:visible;isolation:auto;mix-blend-mode:normal;color-interpolation:sRGB;color-interpolation-filters:linearRGB;solid-color:#000000;solid-opacity:1;vector-effect:none;fill:#00b0f0;fill-opacity:1;fill-rule:nonzero;stroke:none;stroke-linecap:round;stroke-linejoin:round;stroke-miterlimit:4;stroke-dasharray:none;stroke-dashoffset:0;stroke-opacity:1;color-rendering:auto;image-rendering:auto;shape-rendering:auto;text-rendering:auto;enable-background:accumulate;stop-color:#000000"
         d="m 107.34131,7152.3996 c -9.527304,0 -17.758304,4.0593 -23.630804,9.1035 -5.8726,5.0443 -9.9874,10.89 -13.7481,16.0645 a 11.0755,11.0755 0 0 0 2.4473,15.4707 11.0755,11.0755 0 0 0 15.4707,-2.4473 c 3.7438,-5.1512 7.1481,-9.6071 10.2637,-12.2832 3.115504,-2.6761 5.339604,-3.7558 9.197204,-3.7558 3.8753,0 6.1089,1.0873 9.2422,3.791 3.1333,2.7037 6.5549,7.2041 10.3242,12.3906 3.7694,5.1865 7.8872,11.0607 13.7696,16.1367 5.8823,5.076 14.1418,9.1719 23.7128,9.1719 9.6011,0 17.8783,-4.123 23.7676,-9.2207 5.8893,-5.0977 10.0116,-10.9906 13.7871,-16.1856 a 11.0755,11.0755 0 0 0 -2.4492,-15.4707 11.0755,11.0755 0 0 0 -15.4707,2.4473 c -3.787,5.2107 -7.2179,9.7383 -10.3633,12.4609 -3.1454,2.7227 -5.3841,3.8184 -9.2715,3.8184 -3.8749,0 -6.109,-1.0893 -9.2421,-3.793 -3.1332,-2.7037 -6.5529,-7.2021 -10.3223,-12.3886 -3.7694,-5.1865 -7.8871,-11.0607 -13.7695,-16.1368 -5.8825,-5.076 -14.1437,-9.1738 -23.7149,-9.1738 z"
         id="path896-9-3-0-3-1" />
    </g>
  </g>
</svg>
